<?xml version="1.0" standalone="no"?>
<!DOCTYPE svg PUBLIC "-//W3C//DTD SVG 20010904//EN"
 "http://www.w3.org/TR/2001/REC-SVG-20010904/DTD/svg10.dtd">
<svg version="1.0" xmlns="http://www.w3.org/2000/svg"
 width="1536.000000pt" height="2048.000000pt" viewBox="0 0 1536.000000 2048.000000"
 preserveAspectRatio="xMidYMid meet">

<g transform="translate(0.000000,2048.000000) scale(0.100000,-0.100000)"
fill="#000000" stroke="none">
<path d="M6038 13993 c7 -3 16 -2 19 1 4 3 -2 6 -13 5 -11 0 -14 -3 -6 -6z"/>
<path d="M6200 13972 c0 -6 5 -14 10 -17 6 -4 8 -10 5 -14 -2 -5 8 -6 23 -3
17 3 21 7 12 10 -8 3 -23 11 -32 20 -11 9 -18 10 -18 4z"/>
<path d="M6293 13939 c9 -5 17 -22 18 -37 0 -15 3 -21 6 -14 2 6 12 12 20 12
11 0 14 -7 9 -23 -3 -14 1 -33 10 -45 13 -18 19 -20 36 -11 20 11 20 11 -7 29
-17 11 -23 20 -15 25 8 5 8 10 -1 21 -13 16 -4 17 26 4 11 -5 15 -9 9 -9 -6
-1 -11 -8 -11 -16 0 -10 10 -14 32 -13 l32 1 -32 29 c-20 17 -44 28 -63 28
-16 0 -35 7 -42 15 -7 8 -20 15 -29 15 -14 -1 -14 -2 2 -11z"/>
<path d="M6243 13908 c-15 -20 -25 -38 -20 -38 3 0 12 11 21 25 17 26 16 35
-1 13z"/>
<path d="M6273 13882 c-13 -2 -23 -6 -23 -8 0 -10 28 -33 33 -28 3 3 10 -4 17
-15 6 -12 18 -21 28 -21 16 1 16 1 -1 11 -9 6 -14 15 -11 21 4 6 2 8 -4 4 -6
-4 -12 3 -14 16 -2 17 -9 22 -25 20z"/>
<path d="M5922 13860 c0 -14 2 -19 5 -12 2 6 2 18 0 25 -3 6 -5 1 -5 -13z"/>
<path d="M6527 13869 c7 -7 15 -10 18 -7 3 3 -2 9 -12 12 -14 6 -15 5 -6 -5z"/>
<path d="M6588 13833 c7 -3 16 -2 19 1 4 3 -2 6 -13 5 -11 0 -14 -3 -6 -6z"/>
<path d="M6630 13834 c0 -2 12 -10 26 -17 l27 -14 -27 -5 c-14 -3 -26 -1 -26
3 0 5 -4 9 -9 9 -10 0 -23 -71 -15 -79 3 -3 12 3 20 13 14 20 59 31 46 12 -27
-43 4 -39 33 4 11 17 24 30 29 30 5 0 3 -6 -3 -14 -8 -10 -9 -16 -1 -21 18
-11 11 -25 -12 -25 -19 0 -20 -2 -8 -10 13 -8 12 -10 -5 -11 -11 -1 -25 -3
-32 -3 -6 -1 -15 -5 -19 -9 -4 -4 -15 -7 -25 -7 -10 0 -25 -7 -34 -16 -8 -9
-22 -13 -30 -10 -8 3 -15 2 -15 -3 0 -5 -10 -8 -22 -8 -46 -1 -48 -2 -41 -35
4 -22 3 -29 -5 -24 -7 4 -12 16 -12 26 0 10 -4 21 -9 24 -5 3 -7 27 -4 53 3
36 2 44 -6 33 -6 -8 -11 -22 -11 -31 0 -8 -7 -24 -15 -35 -13 -17 -14 -16 -10
23 4 49 -6 61 -30 36 -35 -35 -93 -16 -109 35 -5 14 -1 24 11 31 10 6 13 11 6
11 -6 0 -18 -9 -26 -21 -8 -11 -16 -16 -18 -10 -7 19 -49 0 -49 -22 0 -20 0
-20 15 -1 14 18 14 18 8 -3 -3 -15 -1 -23 7 -23 8 0 10 -9 6 -26 -4 -16 -3
-23 3 -20 5 4 13 1 17 -5 4 -8 3 -9 -4 -5 -8 5 -12 0 -12 -13 0 -11 -4 -23
-10 -26 -14 -9 -12 -42 3 -48 7 -2 8 -8 3 -13 -5 -5 -11 -4 -13 3 -3 9 -18 11
-48 6 l-44 -6 -11 42 c-18 68 -44 53 -55 -33 -5 -47 -15 -60 -15 -22 0 15 -6
34 -14 42 -19 18 -76 8 -77 -15 0 -15 -1 -15 -11 1 -11 15 -13 14 -25 -9 -14
-27 -19 -253 -5 -253 4 0 7 -28 8 -62 0 -35 3 -97 7 -138 4 -41 10 -111 13
-155 5 -55 9 -74 15 -60 6 17 8 17 8 3 1 -15 8 -17 48 -11 41 5 46 4 40 -11
-4 -10 -7 -20 -7 -22 0 -2 -7 -4 -15 -4 -13 0 -15 -7 -9 -36 5 -26 4 -35 -5
-30 -6 4 -19 3 -28 -3 -17 -9 -17 -10 0 -16 15 -6 15 -10 5 -23 -11 -13 -10
-15 5 -9 20 8 23 -6 3 -22 -7 -6 -11 -22 -8 -36 4 -26 -12 -35 -22 -12 -3 6
-3 -1 0 -18 4 -16 8 -57 8 -90 1 -33 3 -62 5 -65 1 -3 4 -18 5 -35 1 -16 6
-43 11 -59 6 -21 5 -27 -4 -22 -6 4 -11 2 -11 -3 0 -6 8 -11 18 -11 12 0 14
-3 4 -8 -10 -7 -9 -41 3 -173 9 -90 20 -211 25 -268 9 -95 20 -147 20 -92 0
13 4 20 11 16 6 -4 9 0 7 11 -2 15 3 19 29 19 17 0 31 4 30 8 -3 16 30 30 55
24 24 -6 25 -9 18 -49 -6 -32 -18 -51 -47 -75 -21 -18 -48 -42 -60 -54 -12
-11 -27 -18 -33 -14 -7 4 -8 -20 -4 -82 4 -48 8 -90 10 -92 2 -2 10 2 18 8 10
8 16 9 21 1 3 -5 -1 -10 -10 -10 -11 0 -15 -5 -12 -15 4 -8 2 -17 -3 -20 -6
-4 -9 -30 -9 -58 2 -49 2 -50 9 -17 4 19 8 29 9 22 0 -7 9 -16 19 -19 9 -4 26
-15 36 -25 15 -14 22 -15 28 -6 15 24 8 -3 -9 -35 -9 -18 -16 -35 -15 -39 1
-5 -2 -8 -8 -8 -5 0 -10 5 -10 11 0 6 -9 9 -19 6 -13 -3 -18 0 -15 8 3 7 1 16
-5 20 -13 8 -13 8 0 -95 6 -47 11 -92 11 -100 0 -8 7 -89 15 -180 8 -91 18
-208 22 -260 5 -52 9 -76 10 -53 1 36 4 40 21 36 11 -3 20 0 20 6 0 6 5 11 12
11 6 0 9 -3 5 -6 -3 -3 -1 -20 5 -36 9 -26 8 -33 -6 -44 -14 -10 -15 -16 -6
-34 6 -11 10 -29 8 -39 -2 -10 3 -26 11 -35 12 -15 12 -19 -4 -34 -16 -16 -17
-16 -6 6 13 24 9 27 -20 12 -14 -8 -19 -7 -19 1 0 7 -2 10 -5 7 -4 -3 -3 -18
1 -32 3 -15 9 -25 12 -22 3 3 10 -2 17 -10 9 -13 16 -14 32 -6 15 8 25 8 38
-2 22 -16 10 -24 -35 -23 -51 1 -60 -8 -60 -61 0 -28 4 -42 9 -34 4 7 6 -13 4
-45 -3 -43 -2 -54 6 -43 8 11 11 12 11 2 0 -9 7 -11 20 -7 29 9 25 -10 -5 -23
-31 -14 -30 16 0 -322 9 -105 35 -439 36 -462 0 -21 1 -21 8 -3 7 16 9 14 14
-13 4 -21 11 -30 20 -26 9 3 16 -3 20 -15 5 -22 -16 -30 -28 -11 -15 24 -22 5
-22 -62 l0 -73 7 65 c5 51 7 56 8 24 2 -47 14 -60 57 -67 28 -4 29 -5 8 -12
-16 -5 -23 -15 -23 -34 0 -20 -2 -23 -10 -11 -8 12 -10 10 -12 -10 -1 -14 -2
-32 -3 -40 0 -8 -3 -20 -6 -25 -6 -10 11 -321 30 -545 6 -69 13 -183 16 -255
3 -71 10 -157 15 -190 6 -33 10 -100 10 -148 0 -54 6 -101 14 -122 9 -20 11
-35 5 -35 -6 0 -7 -19 -4 -47 5 -46 35 -521 35 -566 0 -18 2 -19 11 -7 7 11 8
2 4 -30 -3 -25 -1 -121 5 -215 12 -192 26 -411 40 -625 5 -80 13 -194 19 -255
10 -114 19 -233 48 -662 9 -139 19 -250 22 -248 2 3 4 31 4 63 -1 31 1 49 4
39 2 -10 10 -14 16 -11 9 5 9 4 1 -5 -6 -7 -9 -34 -7 -62 2 -29 0 -49 -7 -49
-20 0 -10 -58 20 -113 16 -31 30 -62 30 -69 0 -7 15 -19 33 -26 17 -8 44 -20
59 -28 33 -18 38 -18 38 1 0 17 16 20 25 5 4 -6 11 -8 16 -4 6 3 13 -3 16 -15
5 -20 23 -30 23 -12 0 5 21 6 46 3 33 -3 49 -1 55 9 6 10 9 8 9 -10 0 -17 4
-22 16 -17 9 3 18 6 20 6 2 0 4 7 4 15 0 12 4 13 19 5 11 -5 27 -7 36 -4 9 4
24 -3 39 -19 21 -23 26 -24 59 -14 22 7 31 14 24 19 -16 10 -1 22 18 14 9 -3
13 -10 10 -16 -3 -5 1 -10 10 -10 9 0 14 4 11 9 -9 15 25 22 41 9 9 -7 40 -11
78 -10 35 2 66 -2 69 -7 4 -6 20 -4 42 5 30 13 37 13 55 0 15 -10 29 -12 52
-5 18 5 58 9 90 9 32 0 66 4 75 9 9 5 35 10 57 12 22 2 49 9 60 16 12 7 26 9
34 4 7 -5 32 -4 54 1 23 5 52 6 65 3 16 -4 31 0 43 11 13 12 28 15 54 10 28
-6 45 -2 72 14 19 11 70 30 112 41 42 12 80 25 86 30 5 5 18 9 29 9 10 0 41
14 67 31 39 24 54 29 82 24 32 -6 57 6 69 32 6 15 253 132 288 137 19 3 40 13
45 22 18 29 56 74 63 72 16 -3 61 15 65 27 3 7 15 11 29 8 19 -4 35 6 70 40
26 25 48 55 50 68 2 17 10 25 30 27 23 3 26 8 30 50 3 42 0 49 -32 79 -19 18
-41 33 -47 33 -7 0 -13 6 -13 13 0 6 -19 38 -43 70 -49 67 -151 226 -203 315
-19 35 -42 66 -50 69 -8 3 -14 13 -14 22 0 9 -14 39 -31 67 -70 108 -162 268
-194 336 l-34 71 4 156 c3 86 7 216 10 290 5 120 4 133 -10 121 -13 -11 -14
-10 -9 4 3 9 1 22 -5 30 -6 7 -9 21 -5 30 5 12 2 15 -10 10 -19 -7 -111 5
-102 13 3 4 -8 15 -25 25 -17 11 -32 18 -33 16 -15 -35 -26 -43 -55 -40 -17 2
-31 -1 -31 -7 0 -14 -43 -14 -75 1 -26 12 -29 20 -15 53 6 15 2 24 -14 37 -18
15 -19 20 -8 37 6 12 12 29 12 38 1 25 26 56 39 48 6 -3 11 -1 11 4 0 6 -9 11
-20 11 -11 0 -20 -7 -20 -15 0 -29 -17 -15 -18 15 0 22 5 31 21 36 12 3 34 17
48 31 23 21 30 23 48 14 12 -7 21 -18 21 -26 0 -16 12 -20 24 -8 4 5 13 8 19
8 6 0 12 9 13 20 2 47 5 53 30 59 22 6 25 11 20 34 -5 22 4 41 49 101 55 74
66 97 43 88 -9 -3 -13 7 -13 32 l0 36 -45 -3 c-35 -3 -42 -1 -33 8 15 17 -14
50 -44 50 -22 0 -23 1 -9 23 10 15 12 27 6 37 -15 23 -11 37 4 17 15 -19 33
-19 54 1 7 6 20 12 28 12 8 0 23 9 34 20 22 22 56 26 63 8 4 -9 6 -10 6 -1 1
6 -6 19 -15 27 -20 21 -5 21 24 0 13 -9 26 -14 29 -11 3 3 5 35 5 71 0 45 -4
70 -15 81 -9 8 -17 10 -19 5 -2 -6 -14 -6 -33 -1 -16 5 -25 10 -20 10 6 1 -3
12 -20 25 l-30 24 30 12 c22 8 35 9 47 1 22 -14 51 -14 43 -1 -3 6 0 10 9 10
15 0 19 34 31 247 4 91 3 102 -13 107 -21 7 -45 58 -36 80 5 12 2 15 -10 10
-10 -4 -15 -13 -12 -20 6 -17 7 -17 -32 -3 -17 6 -33 17 -36 24 -3 9 0 12 8 9
8 -3 17 0 21 6 5 8 11 7 23 -2 13 -11 15 -11 10 3 -4 9 -1 22 5 28 8 8 6 16
-7 30 -17 19 -17 20 4 41 11 11 26 18 32 14 8 -5 9 -1 5 10 -4 10 -7 22 -7 27
0 5 -10 9 -22 10 -22 1 -22 1 2 9 14 4 19 8 13 9 -17 1 -16 16 2 35 8 8 15 30
15 48 -1 31 -1 32 -15 14 -13 -17 -15 -18 -15 -3 0 10 -8 17 -19 17 -13 0 -20
9 -23 30 -4 24 -1 30 15 30 10 0 31 9 47 20 15 11 30 17 34 13 3 -3 6 -2 6 4
0 6 -6 13 -14 16 -21 8 -8 47 19 57 19 7 23 18 28 86 4 42 7 107 6 143 0 54
-2 62 -11 44 -12 -24 -40 -41 -32 -19 3 8 -4 20 -14 28 -19 13 -20 16 -5 68 8
30 15 63 15 73 -1 20 2 21 29 7 17 -9 19 -7 19 17 -1 24 -2 26 -11 10 -16 -27
-32 -9 -24 29 3 21 2 34 -5 34 -5 0 -10 -13 -10 -29 0 -17 -5 -33 -11 -36 -15
-10 -24 2 -12 17 22 28 23 64 3 81 -11 9 -25 17 -30 17 -13 0 -13 67 0 75 6 3
10 1 10 -6 0 -7 2 -10 5 -7 3 3 0 18 -6 34 -7 16 -11 35 -10 41 1 8 -5 11 -16
7 -16 -5 -16 -4 1 10 18 15 18 16 -2 50 l-20 34 31 5 c40 6 44 2 25 -20 -14
-15 -14 -20 -2 -30 7 -7 26 -13 41 -13 19 0 24 -3 15 -9 -10 -6 -8 -10 10 -14
12 -4 26 -7 31 -7 4 0 6 27 5 60 -3 66 -3 66 -89 60 -19 -1 -28 5 -32 19 -6
24 -3 25 23 11 13 -7 19 -6 24 5 3 8 13 15 22 15 14 0 15 2 3 17 -11 13 -11
17 -1 20 22 8 13 20 -12 16 -16 -4 -25 0 -28 14 -4 15 1 18 31 17 58 -2 87 39
37 52 -28 7 -37 31 -22 56 8 14 6 21 -9 32 -27 20 -35 20 -35 -2 0 -10 -9 -28
-19 -39 -18 -19 -18 -23 -5 -48 15 -29 10 -50 -6 -25 -7 12 -12 12 -28 -3 -11
-10 -26 -15 -36 -11 -21 8 -21 24 2 25 10 0 5 6 -16 17 -29 14 -34 14 -43 2
-6 -11 -3 -20 9 -30 10 -9 16 -22 14 -29 -3 -10 3 -12 26 -9 28 4 30 2 36 -31
5 -36 -11 -70 -21 -43 -4 10 -9 8 -19 -5 -11 -15 -15 -15 -23 -4 -7 10 -13 11
-30 2 -12 -7 -19 -16 -16 -22 11 -17 -9 -9 -54 21 -24 17 -38 30 -30 30 11 0
11 2 -1 10 -8 5 -11 10 -6 10 5 0 1 9 -8 19 -11 12 -14 21 -7 26 6 3 11 11 11
16 0 6 -5 7 -10 4 -6 -4 -17 -1 -25 5 -11 9 -15 10 -15 1 0 -7 -15 2 -32 18
-22 21 -39 29 -51 25 -17 -5 -17 -4 2 15 21 21 51 19 51 -4 0 -14 35 -28 62
-25 10 0 34 -3 55 -9 46 -13 51 -9 23 19 -12 12 -22 33 -23 48 -2 21 5 30 31
43 25 13 29 18 16 23 -14 5 -14 9 -3 22 12 14 14 14 25 0 15 -21 31 -20 36 2
5 18 -15 44 -29 40 -4 -2 -10 2 -12 7 -3 6 4 12 15 14 10 2 23 9 27 17 13 23
37 16 37 -11 0 -29 24 -33 56 -10 24 16 34 11 34 -18 0 -15 5 -18 23 -13 12 3
28 6 35 6 6 0 12 9 12 20 0 11 7 20 15 20 25 0 18 48 -10 73 -18 16 -23 28
-19 45 4 12 11 22 16 22 5 0 7 4 3 10 -3 5 1 26 10 46 19 45 19 45 -2 37 -11
-5 -14 -3 -8 6 10 18 -16 33 -32 19 -7 -6 -13 -22 -13 -35 0 -21 -3 -23 -14
-14 -10 8 -16 9 -21 1 -3 -6 -11 -8 -16 -4 -5 3 -6 10 -3 16 5 7 2 8 -7 2 -16
-10 -20 -11 -50 -13 -11 0 -17 -5 -14 -11 3 -5 -1 -10 -10 -10 -9 0 -13 -5
-10 -10 4 -6 1 -18 -6 -26 -10 -13 -14 -12 -32 7 l-19 21 -19 -29 c-10 -15
-19 -22 -19 -15 0 19 -51 36 -61 20 -11 -17 -21 -5 -13 16 6 15 19 20 51 19 7
-1 10 4 7 9 -3 5 -12 7 -20 4 -7 -3 -16 -1 -18 3 -3 5 -31 7 -63 6 -32 -2 -61
-1 -65 1 -3 2 3 22 13 44 11 23 17 45 14 50 -3 6 -3 11 2 11 40 7 53 5 53 -7
0 -21 21 -16 27 6 4 14 14 20 35 20 28 0 29 -2 17 -17 -8 -10 -18 -21 -24 -25
-10 -7 -5 -9 28 -12 6 -1 17 -8 24 -16 11 -13 12 -13 13 3 0 18 34 24 45 7 4
-7 13 -6 27 1 15 8 19 8 14 0 -4 -6 0 -11 11 -11 10 0 29 -7 41 -16 13 -9 22
-11 22 -4 0 6 11 15 25 20 14 5 25 14 25 20 0 6 5 8 10 5 6 -3 10 -1 10 6 0 7
8 5 22 -7 17 -16 20 -16 15 -3 -4 11 0 16 11 15 15 -1 17 13 18 114 1 63 5
183 9 265 4 83 9 233 10 335 2 102 4 230 5 285 2 66 -1 100 -9 103 -8 3 -8 9
0 24 11 20 5 30 -26 41 -6 2 -4 12 5 22 9 11 10 16 3 11 -8 -4 -13 -1 -13 9 0
25 24 12 30 -16 6 -26 14 -19 23 21 4 17 32 42 87 79 44 30 80 58 80 63 0 5
-4 7 -9 3 -5 -3 -12 -1 -16 5 -8 13 -10 68 -3 75 9 10 59 -15 53 -25 -9 -15 4
-12 20 4 8 7 11 16 8 20 -4 3 3 6 15 6 12 0 22 5 22 10 0 6 -4 10 -10 10 -5 0
-10 4 -10 10 0 5 6 7 13 4 8 -3 18 9 27 31 7 19 17 35 21 35 4 0 6 15 5 33 -2
17 5 45 15 61 10 16 15 34 12 39 -4 6 4 7 21 3 15 -4 26 -2 26 3 0 6 6 8 14 5
8 -3 17 -1 21 5 3 6 13 11 21 11 11 0 12 -4 5 -18 -8 -14 -6 -18 10 -19 11 -1
19 5 19 13 0 12 3 12 20 2 26 -17 25 -42 -2 -62 -13 -9 -18 -14 -11 -11 20 9
42 -6 38 -26 -5 -25 5 -24 49 6 20 14 42 25 49 25 23 0 130 67 118 74 -6 4
-11 11 -11 17 0 13 23 7 37 -11 9 -11 12 -12 13 -2 0 24 -20 51 -34 46 -19 -7
-39 31 -31 56 4 12 2 20 -4 20 -6 0 -11 -4 -11 -9 0 -5 -9 -11 -20 -14 -12 -3
-20 -14 -20 -26 0 -11 -6 -24 -13 -28 -8 -4 -16 -16 -20 -25 -3 -10 -11 -18
-17 -18 -15 0 -26 33 -12 38 6 2 22 12 34 23 l23 20 -23 -11 c-21 -11 -22 -10
-10 9 7 12 17 21 22 21 6 0 1 7 -10 15 -16 13 -17 16 -4 25 11 8 4 9 -25 4
-50 -8 -51 -9 -31 -29 9 -9 16 -28 16 -43 0 -25 -1 -25 -15 -6 -8 10 -15 27
-15 37 0 9 -5 17 -12 17 -9 0 -9 3 0 12 20 20 14 25 -25 23 -39 -3 -65 17 -56
42 3 7 0 13 -6 13 -6 0 -11 8 -11 18 0 10 -5 23 -12 30 -9 9 -7 12 11 12 18 0
22 5 19 28 -2 16 -8 26 -16 24 -8 -1 -11 2 -8 7 4 5 2 12 -4 16 -5 3 -10 11
-10 16 0 6 5 7 10 4 6 -3 10 -1 10 4 0 6 -7 11 -15 11 -8 0 -15 4 -15 9 0 5
-9 11 -20 14 -11 3 -20 0 -20 -5 0 -7 -4 -7 -12 -1 -7 6 -22 13 -33 17 -16 6
-18 5 -7 -5 6 -7 12 -18 12 -25 0 -14 -46 -64 -60 -64 -17 0 -11 -18 9 -25 11
-3 22 -12 25 -20 3 -8 16 -15 30 -15 14 0 30 -10 40 -25 9 -14 23 -25 31 -25
8 0 15 -2 15 -5 0 -11 -55 -54 -68 -55 -24 0 -82 54 -82 78 0 13 -6 22 -15 22
-8 0 -15 4 -15 9 0 12 -61 40 -86 40 -10 0 -40 3 -66 7 -27 4 -48 3 -48 -2 0
-17 15 -31 38 -38 12 -4 20 -12 16 -17 -3 -5 -10 -7 -15 -4 -5 4 -9 2 -9 -4 0
-12 -27 -8 -42 7 -7 7 -18 12 -25 12 -7 0 -17 9 -23 21 -21 38 -21 13 -1 -35
l20 -46 -20 0 c-22 0 -49 22 -49 39 0 20 -16 19 -29 -1 -8 -13 -9 -18 -1 -13
8 5 11 -2 8 -21 -2 -18 -9 -29 -18 -29 -8 0 -14 6 -13 12 2 9 -6 11 -25 7 -23
-5 -30 -1 -41 20 -11 19 -18 23 -27 15 -8 -7 -14 -6 -18 3 -3 7 -5 4 -3 -7 1
-10 -9 -31 -22 -45 -13 -14 -27 -34 -31 -45 -5 -15 -9 -8 -14 28 -5 30 -12 47
-21 47 -8 0 -20 8 -27 18 -7 10 -23 18 -36 18 -21 0 -20 -2 10 -28 25 -21 30
-30 21 -39 -6 -6 -9 -17 -7 -24 3 -7 1 -16 -5 -20 -8 -4 -8 -12 -1 -25 11 -21
-2 -36 -22 -24 -9 5 -9 2 1 -9 12 -15 11 -17 -5 -18 -11 0 -14 -3 -6 -6 17 -7
15 -23 -3 -23 -7 0 -19 8 -24 18 -7 12 -10 13 -11 3 0 -8 8 -19 17 -26 15 -11
36 -74 47 -145 4 -21 1 -25 -18 -25 -12 1 -28 5 -35 10 -11 6 -12 2 -7 -19 3
-14 1 -36 -5 -47 -8 -15 -8 -24 0 -32 16 -16 14 -25 -6 -31 -10 -3 1 -3 25 -1
38 5 43 3 52 -21 6 -14 10 -33 10 -43 0 -19 -32 -35 -60 -31 -18 2 -61 46 -53
54 3 3 1 12 -6 20 -9 11 -9 15 1 18 9 3 1 16 -20 36 -28 26 -37 30 -53 22 -10
-6 -19 -8 -19 -5 0 3 -9 -4 -20 -15 -18 -18 -20 -30 -16 -101 3 -54 9 -85 18
-90 22 -14 -1 -10 -31 6 -16 8 -31 11 -35 8 -9 -9 -7 6 3 25 7 14 4 17 -15 18
-13 1 -24 -3 -24 -9 0 -6 -2 -8 -5 -5 -4 3 -3 17 1 32 5 21 9 24 25 15 15 -8
19 -6 19 7 0 10 -8 26 -17 36 -14 15 -15 23 -6 38 10 14 9 21 -2 30 -12 10
-15 9 -15 -4 0 -9 -6 -16 -14 -16 -8 0 -16 -7 -20 -15 -3 -8 -12 -15 -21 -15
-8 0 -15 -5 -15 -11 0 -6 -9 -9 -19 -6 -26 6 -38 -3 -42 -33 -3 -18 1 -25 16
-28 34 -7 42 -22 20 -38 -17 -13 -18 -16 -5 -24 10 -7 11 -10 3 -10 -8 0 -13
-13 -13 -30 0 -18 -6 -33 -15 -37 -25 -9 -28 3 -11 36 15 29 15 33 -4 68 -11
21 -20 33 -20 28 0 -6 -5 -2 -11 8 -6 9 -14 15 -20 12 -15 -10 -58 29 -59 53
0 12 5 22 10 22 7 0 7 7 -1 21 -11 21 -9 46 6 82 6 13 4 16 -9 11 -11 -4 -16
-18 -16 -43 0 -44 -8 -55 -27 -40 -10 9 -13 7 -14 -7 -1 -11 -1 -25 0 -33 2
-7 -2 -10 -8 -6 -6 3 -11 2 -11 -4 0 -5 -3 -18 -6 -28 -4 -13 -3 -15 4 -4 7
10 11 10 17 1 4 -6 5 -12 4 -13 -2 -1 -19 -10 -38 -20 -24 -13 -32 -14 -28 -4
3 9 -11 20 -38 33 -35 15 -41 22 -34 36 10 18 2 27 -31 33 -13 2 -20 -2 -20
-11 0 -17 -42 -19 -71 -4 -10 6 -19 20 -19 31 0 11 -7 22 -15 25 -26 11 -18
37 10 32 29 -6 34 14 10 38 -12 13 -15 12 -25 -6 -9 -16 -19 -21 -42 -18 -20
2 -33 -2 -36 -11 -3 -8 0 -11 7 -7 7 5 11 -2 11 -18 0 -30 -3 -32 -24 -10 -15
14 -17 14 -22 0 -7 -19 -30 -21 -37 -3 -4 10 -6 10 -6 0 -1 -16 -31 -17 -31
-2 0 6 -7 8 -17 5 -9 -4 -20 -1 -25 6 -6 10 -10 10 -17 -1 -6 -10 -9 -5 -8 15
0 16 -2 36 -4 44 -2 9 2 15 11 14 9 -1 16 8 16 21 1 18 -3 17 -36 -16 -30 -30
-44 -37 -71 -35 -19 2 -40 -1 -47 -7 -9 -7 -12 -4 -10 14 2 18 -2 25 -19 27
-13 2 -23 -2 -23 -8 0 -6 -5 -8 -10 -5 -6 4 -8 10 -5 15 3 4 -3 11 -12 14 -15
6 -15 8 -3 16 13 8 12 11 -3 22 -22 17 -13 48 14 48 11 0 19 7 19 16 0 14 7
15 38 11 21 -4 31 -3 24 2 -8 4 -12 12 -10 16 1 5 -21 9 -51 10 -43 2 -58 7
-73 25 -11 14 -16 30 -12 42 4 14 0 21 -16 25 -22 6 -21 6 6 19 28 12 28 13 7
19 -13 4 -23 14 -23 22 0 8 -5 11 -12 7 -8 -5 -9 -2 -5 10 4 10 7 20 7 22 0 2
5 4 10 4 6 0 10 -7 10 -15 0 -10 11 -15 35 -15 25 0 33 -4 29 -14 -3 -7 1 -16
8 -19 9 -3 14 3 15 16 1 11 8 24 15 28 8 6 -1 9 -24 9 -21 0 -38 5 -38 11 0 6
-7 9 -15 5 -10 -3 -15 1 -15 12 0 12 17 24 51 37 44 18 48 21 27 27 l-23 6 23
7 c12 4 22 11 22 16 0 5 3 8 8 7 18 -4 40 15 35 29 -5 13 -2 15 16 10 14 -3
21 -1 18 6 -6 20 18 35 59 38 37 3 74 32 74 57 0 5 10 14 23 20 22 10 21 11
-6 11 -15 1 -30 8 -33 16 -4 8 -10 12 -15 9 -5 -3 -9 0 -9 7 0 7 -7 4 -15 -7
-14 -19 -14 -19 -30 4 -9 12 -21 22 -27 22 -7 0 -3 -6 8 -14 18 -13 18 -15 2
-21 -23 -9 -50 19 -46 46 4 28 -15 35 -36 14 -9 -9 -16 -12 -16 -7 0 6 -3 17
-6 26 -5 12 1 14 29 9 36 -5 54 7 41 29 -5 7 -12 5 -22 -8 -13 -16 -14 -17 -9
-1 4 9 2 17 -3 17 -6 0 -10 -5 -10 -11 0 -5 -5 -7 -11 -3 -6 3 -9 14 -6 24 3
11 -1 17 -9 16 -22 -3 -38 -23 -25 -30 7 -4 6 -20 -3 -49 -7 -24 -10 -52 -6
-62 4 -11 5 -24 2 -30 -4 -5 -8 -19 -9 -30 -2 -11 -10 -25 -18 -31 -21 -16
-20 -45 1 -37 12 4 15 2 12 -8 -3 -8 -12 -14 -22 -14 -10 0 -24 -11 -31 -25
-14 -24 -14 -25 -15 -3 0 13 14 48 30 78 17 32 30 71 30 91 0 19 4 43 9 52 6
11 5 38 -2 71 -9 47 -8 56 6 66 10 7 17 18 17 26 0 8 -5 6 -13 -6 -22 -29 -28
-3 -13 49 8 25 12 46 10 46 -3 0 4 9 15 21 11 12 23 19 28 16 5 -3 20 3 33 13
24 19 24 19 3 13 -14 -3 -23 -1 -23 6 0 6 7 11 15 11 17 0 57 20 66 34 4 5 14
6 23 3 9 -4 16 -2 16 3 0 6 -7 10 -15 10 -16 0 -20 12 -8 23 3 4 12 2 20 -4
10 -9 13 -8 13 4 0 9 9 22 19 29 26 18 10 39 -47 61 -47 19 -65 22 -42 7 13
-9 13 -11 1 -19 -12 -8 -13 -18 -4 -58 6 -26 10 -50 8 -51 -10 -11 -25 13 -25
39 0 27 -2 29 -27 23 -24 -6 -25 -5 -18 17 4 13 8 34 9 47 1 14 8 22 21 23 13
1 8 5 -14 12 -26 8 -36 8 -39 -1 -2 -8 -9 -9 -22 -2 -13 7 -21 7 -25 0 -3 -5
-14 -10 -23 -10 -15 0 -15 2 -2 10 13 8 12 10 -3 10 -10 0 -30 14 -44 30 -13
17 -30 30 -37 30 -6 0 -28 9 -49 20 -26 14 -37 16 -37 8 0 -9 -3 -9 -8 -3 -4
6 -32 17 -62 24 -30 7 -62 19 -70 26 -15 12 -60 27 -60 19z m145 -134 c-3 -5
-14 -6 -25 -3 -11 3 -18 9 -15 13 3 5 14 6 25 3 11 -3 18 -9 15 -13z m66 -19
c13 -11 20 -23 16 -27 -4 -5 -12 -3 -16 4 -4 8 -15 10 -26 6 -13 -5 -16 -4
-11 4 4 7 2 12 -4 12 -6 0 -8 5 -5 10 9 15 20 12 46 -9z m-506 -20 c3 -5 1
-12 -4 -15 -5 -3 -11 1 -15 9 -6 16 9 21 19 6z m555 -11 c0 -5 -4 -10 -10 -10
-5 0 -10 5 -10 10 0 6 5 10 10 10 6 0 10 -4 10 -10z m-595 -28 c0 -31 -19 -28
-23 4 -3 18 0 25 10 22 7 -3 13 -14 13 -26z m393 -16 c2 -25 0 -36 -7 -31 -6
3 -11 15 -11 26 0 18 -4 20 -30 14 -25 -5 -30 -3 -30 12 0 15 7 19 38 18 36 0
37 -1 40 -39z m338 33 c8 -14 -18 -31 -30 -19 -9 9 0 30 14 30 5 0 12 -5 16
-11z m-618 -34 c1 -13 -3 -27 -9 -31 -17 -10 -39 19 -33 42 8 29 39 20 42 -11z
m152 20 c0 -2 -9 -3 -19 -2 -11 0 -18 5 -15 9 4 6 34 0 34 -7z m660 -36 c0 -5
-4 -9 -10 -9 -5 0 -10 7 -10 16 0 8 5 12 10 9 6 -3 10 -10 10 -16z m-1233 -49
c3 -21 -11 -27 -22 -10 -8 13 3 45 12 36 4 -4 8 -15 10 -26z m563 20 c0 -5 7
-10 15 -10 10 0 15 -10 15 -30 0 -16 -4 -30 -9 -30 -16 0 -42 31 -35 41 3 6 0
16 -6 24 -10 12 -9 15 4 15 9 0 16 -4 16 -10z m175 -11 c11 -11 -6 -45 -21
-42 -5 1 -20 16 -34 33 l-25 33 35 -8 c19 -4 39 -11 45 -16z m255 11 c0 -5 -4
-10 -10 -10 -5 0 -10 5 -10 10 0 6 5 10 10 10 6 0 10 -4 10 -10z m-950 -51 c0
-13 -25 -39 -39 -39 -6 0 -8 7 -5 15 4 8 13 15 21 15 8 0 11 5 8 10 -3 6 -1
10 4 10 6 0 11 -5 11 -11z m1018 -14 c-3 -3 -9 2 -12 12 -6 14 -5 15 5 6 7 -7
10 -15 7 -18z m-872 -9 c14 -14 20 -46 8 -46 -10 0 -42 45 -37 52 6 11 13 10
29 -6z m701 8 c-3 -3 -12 -4 -19 -1 -8 3 -5 6 6 6 11 1 17 -2 13 -5z m53 -4
c0 -5 -8 -10 -17 -10 -15 0 -16 2 -3 10 19 12 20 12 20 0z m-90 -35 c10 -12
10 -15 -4 -15 -9 0 -16 7 -16 15 0 8 2 15 4 15 2 0 9 -7 16 -15z m-860 -13
c26 -21 19 -52 -11 -45 -22 6 -24 14 -8 30 9 9 7 10 -10 6 -20 -5 -28 6 -14
20 10 11 19 8 43 -11z m969 -8 c2 -2 -2 -11 -9 -19 -12 -15 -14 -15 -22 -1 -5
9 -20 16 -33 16 -14 0 -25 5 -25 10 0 9 78 4 89 -6z m-334 -15 c-8 -12 -35
-12 -35 0 0 11 22 20 33 14 4 -2 5 -9 2 -14z m85 5 c0 -8 -4 -12 -10 -9 -5 3
-10 10 -10 16 0 5 5 9 10 9 6 0 10 -7 10 -16z m-408 -29 c-2 -13 -13 -25 -23
-28 -10 -3 -19 -12 -19 -21 0 -20 -17 -21 -36 -2 -19 19 -18 28 3 24 10 -2 19
5 21 16 6 27 24 44 43 39 11 -3 14 -12 11 -28z m462 13 c17 -84 17 -90 -4 -83
-15 5 -18 3 -14 -8 3 -8 0 -18 -7 -22 -9 -6 -10 2 -5 30 7 35 6 37 -13 32 -29
-7 -46 16 -25 34 15 12 16 11 10 -9 -7 -21 -6 -21 18 -11 20 10 24 17 20 36
-4 13 -2 23 5 23 6 0 13 -10 15 -22z m-364 8 c0 -11 -19 -15 -25 -6 -3 5 1 10
9 10 9 0 16 -2 16 -4z m140 -6 c0 -5 -9 -19 -20 -30 -11 -11 -15 -20 -10 -20
6 0 9 -18 8 -40 -2 -26 -8 -40 -17 -40 -8 0 -11 6 -7 16 5 12 1 14 -17 9 -15
-4 -18 -3 -8 3 8 6 11 17 6 32 -6 18 -9 20 -17 9 -8 -12 -9 -12 -6 0 2 8 13
19 23 25 11 6 26 19 33 29 14 19 32 23 32 7z m-430 -45 c0 -8 -7 -15 -15 -15
-8 0 -15 7 -15 15 0 8 7 15 15 15 8 0 15 -7 15 -15z m-70 -45 c0 -5 -5 -12
-11 -16 -14 -8 -33 11 -25 25 7 11 36 4 36 -9z m640 10 c0 -5 -4 -10 -10 -10
-5 0 -10 5 -10 10 0 6 5 10 10 10 6 0 10 -4 10 -10z m-300 -26 c0 -8 -7 -14
-15 -14 -15 0 -21 21 -9 33 10 9 24 -2 24 -19z m259 -18 c-14 -15 -22 0 -13
26 7 22 7 22 14 3 4 -11 4 -24 -1 -29z m-342 12 c-3 -8 -6 -5 -6 6 -1 11 2 17
5 13 3 -3 4 -12 1 -19z m153 -9 c0 -5 -6 -9 -14 -9 -15 0 -28 24 -19 34 7 7
33 -13 33 -25z m-200 0 c0 -5 -4 -9 -10 -9 -5 0 -10 -4 -10 -10 0 -5 7 -10 15
-10 20 0 8 -28 -17 -41 -15 -8 -19 -8 -14 0 7 10 -7 16 -28 12 -5 -1 -6 5 -2
14 3 9 6 19 6 21 0 2 7 4 16 4 8 0 12 5 9 10 -3 6 -4 14 0 20 7 11 35 2 35
-11z m727 -1 c-3 -8 -6 -5 -6 6 -1 11 2 17 5 13 3 -3 4 -12 1 -19z m-867 -24
c0 -8 -4 -12 -10 -9 -5 3 -10 10 -10 16 0 5 5 9 10 9 6 0 10 -7 10 -16z m830
12 c0 -3 -4 -8 -10 -11 -5 -3 -10 -1 -10 4 0 6 5 11 10 11 6 0 10 -2 10 -4z
m-780 -16 c0 -5 -8 -10 -17 -10 -15 0 -16 2 -3 10 19 12 20 12 20 0z m774 -41
c-15 -16 -24 -29 -21 -29 4 0 3 -9 -3 -20 -6 -11 -15 -18 -20 -15 -4 3 -11 -1
-13 -7 -3 -7 -6 -3 -6 8 -1 12 5 24 13 27 7 3 16 19 19 36 5 22 12 31 27 31
11 0 20 6 21 13 0 9 2 8 6 -1 3 -8 -7 -27 -23 -43z m52 24 c-10 -10 -19 5 -10
18 6 11 8 11 12 0 2 -7 1 -15 -2 -18z m-396 7 c0 -5 -7 -10 -16 -10 -8 0 -12
5 -9 10 3 6 10 10 16 10 5 0 9 -4 9 -10z m-440 -24 c0 -3 -4 -8 -10 -11 -5 -3
-10 -1 -10 4 0 6 5 11 10 11 6 0 10 -2 10 -4z m-39 -26 c5 0 9 -7 9 -15 0 -18
-9 -19 -32 -1 -22 16 -23 30 -2 22 9 -3 20 -6 25 -6z m77 -27 c-2 -10 -14 -19
-26 -21 -21 -3 -22 -1 -12 17 13 26 43 28 38 4z m788 1 c-9 -8 -20 -12 -26 -9
-19 12 -10 25 16 25 23 0 24 -1 10 -16z m-291 -4 c3 -5 -1 -10 -9 -10 -8 0
-18 5 -21 10 -3 6 1 10 9 10 8 0 18 -4 21 -10z m-60 -36 c-10 -7 -14 -18 -9
-25 5 -9 10 -8 18 4 10 13 15 12 35 -9 20 -21 21 -25 7 -30 -9 -3 -27 -3 -40
0 -14 3 -28 1 -31 -5 -4 -6 -13 -8 -21 -5 -8 3 -14 1 -14 -3 0 -5 -3 -16 -6
-25 -4 -11 -1 -16 10 -16 10 0 16 -9 16 -25 0 -17 -4 -23 -15 -19 -8 3 -14 9
-13 12 3 30 -37 76 -58 68 -7 -3 -18 2 -24 10 -9 10 -9 14 -1 14 6 0 11 4 11
10 0 5 -7 7 -16 3 -12 -4 -15 -2 -12 8 3 8 13 13 24 12 10 -1 24 7 31 17 16
23 58 33 83 20 16 -9 22 -7 27 7 5 13 8 14 11 3 3 -7 -3 -19 -13 -26z m245
-34 c0 -18 -6 -33 -15 -37 -23 -8 -26 0 -13 35 16 40 28 41 28 2z m96 3 c-10
-10 -19 5 -10 18 6 11 8 11 12 0 2 -7 1 -15 -2 -18z m-162 -6 c7 -7 11 -18 8
-25 -2 -6 11 -26 28 -43 25 -26 30 -37 25 -58 -9 -36 -12 -37 -35 -16 -11 10
-20 30 -20 45 0 21 -7 30 -30 40 -42 17 -45 27 -18 50 28 23 26 23 42 7z
m-804 -17 c0 -5 -5 -10 -11 -10 -5 0 -7 5 -4 10 3 6 8 10 11 10 2 0 4 -4 4
-10z m213 -69 c-7 -43 -22 -61 -51 -60 l-27 0 23 16 c21 15 33 41 12 28 -5 -3
-10 3 -10 14 0 15 6 21 21 21 11 0 17 5 14 10 -3 6 -3 15 1 22 10 16 23 -20
17 -51z m412 39 c4 -6 -6 -10 -22 -10 -22 0 -25 2 -13 10 19 12 27 12 35 0z
m624 -40 c0 -8 -5 -4 -11 10 -9 21 -12 22 -15 8 -5 -20 -20 -23 -43 -8 -19 12
-4 27 30 32 25 3 39 -12 39 -42z m-259 30 c8 -5 11 -10 5 -10 -5 0 -17 5 -25
10 -8 5 -10 10 -5 10 6 0 17 -5 25 -10z m-205 -19 c10 -17 -10 -20 -35 -5
l-25 13 27 1 c15 0 29 -4 33 -9z m-107 -12 c-2 -6 -8 -10 -13 -10 -5 0 -11 4
-13 10 -2 6 4 11 13 11 9 0 15 -5 13 -11z m-45 -6 c-7 -2 -19 -2 -25 0 -7 3
-2 5 12 5 14 0 19 -2 13 -5z m-598 -13 c3 -5 -1 -10 -10 -10 -9 0 -13 5 -10
10 3 6 8 10 10 10 2 0 7 -4 10 -10z m665 0 c0 -5 -5 -10 -11 -10 -5 0 -7 5 -4
10 3 6 8 10 11 10 2 0 4 -4 4 -10z m-300 -14 c0 -3 -4 -8 -10 -11 -5 -3 -10
-1 -10 4 0 6 5 11 10 11 6 0 10 -2 10 -4z m140 0 c0 -3 -4 -8 -10 -11 -5 -3
-10 -1 -10 4 0 6 5 11 10 11 6 0 10 -2 10 -4z m246 -13 c-4 -9 -1 -20 6 -24
10 -7 10 -11 0 -21 -9 -9 -12 -9 -12 1 0 7 -4 9 -10 6 -5 -3 -10 0 -10 9 0 23
11 46 22 46 6 0 7 -8 4 -17z m-731 -3 c3 -5 -1 -10 -9 -10 -9 0 -16 -7 -16
-15 0 -17 -16 -20 -25 -4 -4 6 1 17 11 24 23 17 31 18 39 5z m685 -12 c0 -16
-3 -19 -11 -11 -6 6 -8 16 -5 22 11 17 16 13 16 -11z m180 -18 c0 -5 -4 -10
-10 -10 -5 0 -10 5 -10 10 0 6 5 10 10 10 6 0 10 -4 10 -10z m140 -30 c0 -5
-4 -10 -10 -10 -5 0 -10 5 -10 10 0 6 5 10 10 10 6 0 10 -4 10 -10z m-320 -20
c0 -5 -4 -10 -10 -10 -5 0 -10 5 -10 10 0 6 5 10 10 10 6 0 10 -4 10 -10z
m-360 -20 c0 -5 -5 -10 -11 -10 -5 0 -7 5 -4 10 3 6 8 10 11 10 2 0 4 -4 4
-10z m190 -11 c0 -5 -4 -9 -10 -9 -5 0 -10 7 -10 16 0 8 5 12 10 9 6 -3 10
-10 10 -16z m-451 -33 c9 -11 5 -15 -21 -19 -40 -6 -43 -4 -23 17 20 20 29 20
44 2z m312 -29 c-15 -15 -24 -2 -16 24 7 20 8 21 17 5 7 -12 7 -21 -1 -29z
m2534 12 c-10 -15 -25 -10 -19 6 4 8 10 12 15 9 5 -3 7 -10 4 -15z m-2449 -36
c-10 -10 -19 5 -10 18 6 11 8 11 12 0 2 -7 1 -15 -2 -18z m2494 -4 c0 -5 -7
-9 -15 -9 -15 0 -20 12 -9 23 8 8 24 -1 24 -14z m-2340 1 c0 -5 9 -10 20 -10
11 0 20 -5 20 -11 0 -7 -9 -9 -24 -5 -19 5 -25 1 -31 -17 -4 -12 -7 -25 -6
-29 1 -5 -3 -8 -9 -8 -12 0 -12 6 1 53 9 33 29 52 29 27z m69 -24 c-3 -3 -11
5 -18 17 -13 21 -12 21 5 5 10 -10 16 -20 13 -22z m-289 -18 c0 -5 -9 -8 -20
-8 -13 0 -20 7 -20 20 0 18 2 19 20 8 11 -7 20 -16 20 -20z m465 -5 c-17 -44
-18 -83 -1 -89 26 -10 18 -24 -15 -24 -27 0 -30 3 -24 23 4 12 9 30 11 40 3 9
0 17 -6 17 -7 0 -5 6 4 16 9 8 16 20 16 25 0 5 5 9 11 9 7 0 8 -7 4 -17z m42
-5 c-3 -8 -6 -5 -6 6 -1 11 2 17 5 13 3 -3 4 -12 1 -19z m-443 -11 c15 -11 17
-19 9 -42 l-9 -28 -16 42 c-17 43 -14 50 16 28z m106 3 c0 -5 -7 -10 -15 -10
-8 0 -15 5 -15 10 0 6 7 10 15 10 8 0 15 -4 15 -10z m1860 -5 c0 -8 -4 -15
-10 -15 -5 0 -10 7 -10 15 0 8 5 15 10 15 6 0 10 -7 10 -15z m233 -5 c35 -28
34 -84 -2 -87 -28 -1 -52 -23 -33 -30 14 -5 16 -23 3 -23 -14 0 -61 45 -61 59
0 6 11 11 24 11 18 0 25 6 28 23 2 15 9 21 22 19 15 -3 16 -1 5 11 -7 8 -18
14 -24 14 -35 0 -55 4 -55 13 0 18 67 11 93 -10z m-2000 3 c-7 -2 -19 -2 -25
0 -7 3 -2 5 12 5 14 0 19 -2 13 -5z m77 -13 c0 -5 -4 -10 -10 -10 -5 0 -10 5
-10 10 0 6 5 10 10 10 6 0 10 -4 10 -10z m-51 -14 c-5 -6 -9 -17 -9 -25 1 -13
4 -12 15 3 8 11 18 17 22 13 8 -9 -26 -47 -44 -47 -12 0 -33 38 -33 60 0 5 13
8 29 7 19 -1 26 -6 20 -11z m-99 -32 c0 -14 -7 -27 -15 -30 -8 -4 -15 -11 -15
-17 0 -6 3 -8 6 -4 4 3 13 -1 21 -9 9 -8 14 -16 12 -17 -2 -1 -14 -8 -26 -15
-13 -7 -23 -9 -23 -5 0 5 -13 14 -30 21 -40 18 -38 27 8 38 32 8 37 13 40 42
4 37 22 34 22 -4z m167 14 c-3 -8 -6 -5 -6 6 -1 11 2 17 5 13 3 -3 4 -12 1
-19z m153 12 c0 -5 -2 -10 -4 -10 -2 0 -12 -3 -22 -7 -16 -6 -17 -5 -4 10 17
19 30 22 30 7z m2282 -42 c-15 -15 -21 4 -9 32 l10 25 5 -24 c2 -13 -1 -28 -6
-33z m-2842 38 c0 -3 -4 -8 -10 -11 -5 -3 -10 -1 -10 4 0 6 5 11 10 11 6 0 10
-2 10 -4z m2094 -23 c-9 -37 -13 -43 -29 -43 -12 0 -25 21 -25 41 0 9 34 27
53 28 4 1 4 -11 1 -26z m426 17 c0 -5 -4 -10 -10 -10 -5 0 -10 5 -10 10 0 6 5
10 10 10 6 0 10 -4 10 -10z m-2870 -17 c0 -20 -17 -50 -24 -43 -2 3 -2 17 1
33 6 30 23 37 23 10z m2800 7 c0 -5 -4 -10 -10 -10 -5 0 -10 5 -10 10 0 6 5
10 10 10 6 0 10 -4 10 -10z m151 -16 c5 -2 5 -12 2 -21 -6 -14 -7 -14 -18 0
-8 11 -21 15 -38 11 -26 -4 -35 5 -20 19 6 7 59 0 74 -9z m289 -10 c0 -8 -4
-12 -10 -9 -5 3 -10 10 -10 16 0 5 5 9 10 9 6 0 10 -7 10 -16z m-730 -43 c0
-11 5 -21 12 -23 6 -2 8 -10 4 -16 -5 -9 -13 -9 -27 -2 -26 15 -25 60 3 60 4
0 8 -9 8 -19z m380 9 c0 -5 -4 -10 -10 -10 -5 0 -10 5 -10 10 0 6 5 10 10 10
6 0 10 -4 10 -10z m-2070 -15 c0 -8 -4 -15 -10 -15 -5 0 -10 7 -10 15 0 8 5
15 10 15 6 0 10 -7 10 -15z m-120 -2 c0 -3 -11 -16 -25 -29 -14 -13 -25 -28
-25 -34 0 -17 -18 -11 -23 8 -5 22 26 57 53 59 11 1 20 -1 20 -4z m210 -9 c0
-17 -22 -14 -28 4 -2 7 3 12 12 12 9 0 16 -7 16 -16z m89 -11 c2 -2 -5 -3 -17
-3 -14 0 -22 6 -22 16 0 14 3 15 18 3 9 -7 19 -15 21 -16z m2261 13 c0 -3 -4
-8 -10 -11 -5 -3 -10 -1 -10 4 0 6 5 11 10 11 6 0 10 -2 10 -4z m-2475 -16 c3
-5 1 -10 -4 -10 -6 0 -11 5 -11 10 0 6 2 10 4 10 3 0 8 -4 11 -10z m2574 -40
c0 -10 -3 -8 -9 5 -12 27 -12 43 0 25 5 -8 9 -22 9 -30z m-2775 15 c3 -8 1
-15 -4 -15 -6 0 -10 7 -10 15 0 8 2 15 4 15 2 0 6 -7 10 -15z m2802 -12 c-10
-10 -19 5 -10 18 6 11 8 11 12 0 2 -7 1 -15 -2 -18z m-851 -63 c-4 -6 -12 -7
-18 -3 -7 4 -16 8 -22 8 -13 1 -7 28 8 37 13 8 41 -28 32 -42z m-65 30 c0 -5
-4 -10 -10 -10 -5 0 -10 5 -10 10 0 6 5 10 10 10 6 0 10 -4 10 -10z m-56 -15
c3 -8 1 -15 -4 -15 -6 0 -10 7 -10 15 0 8 2 15 4 15 2 0 6 -7 10 -15z m381 -5
c3 -5 1 -10 -4 -10 -6 0 -11 5 -11 10 0 6 2 10 4 10 3 0 8 -4 11 -10z m-315
-32 c0 -6 -7 -5 -15 2 -8 7 -15 17 -15 22 0 6 7 5 15 -2 8 -7 15 -17 15 -22z
m120 2 c0 -5 -7 -10 -16 -10 -8 0 -12 5 -9 10 3 6 10 10 16 10 5 0 9 -4 9 -10z
m315 -19 c3 -5 1 -12 -5 -16 -5 -3 -10 1 -10 9 0 18 6 21 15 7z m-1877 -19 c2
-7 -2 -10 -12 -6 -9 3 -16 11 -16 16 0 13 23 5 28 -10z m1609 0 c14 -9 11 -70
-3 -62 -5 3 -8 8 -6 13 1 4 -3 7 -9 7 -6 0 -8 8 -5 18 4 13 1 19 -9 19 -8 0
-15 -4 -15 -9 0 -4 -5 -8 -11 -8 -8 0 -8 5 1 15 13 16 38 19 57 7z m-1462 -12
c3 -5 1 -10 -4 -10 -6 0 -11 5 -11 10 0 6 2 10 4 10 3 0 8 -4 11 -10z m1343
-7 c2 -8 -5 -13 -17 -13 -21 0 -35 13 -24 24 10 10 36 3 41 -11z m427 7 c-3
-5 -12 -7 -20 -3 -21 7 -19 13 6 13 11 0 18 -4 14 -10z m-2255 -10 c13 -8 13
-10 -2 -10 -9 0 -20 5 -23 10 -8 13 5 13 25 0z m1910 -17 c0 -5 -5 -15 -10
-23 -9 -13 -11 -13 -20 0 -15 22 -12 30 10 30 11 0 20 -3 20 -7z m-1700 -13
c0 -5 -4 -10 -10 -10 -5 0 -10 5 -10 10 0 6 5 10 10 10 6 0 10 -4 10 -10z m97
-20 c-3 -11 0 -20 5 -20 7 0 6 -5 -1 -14 -8 -10 -9 -16 -1 -21 5 -3 10 -11 10
-16 0 -6 -3 -8 -8 -5 -4 2 -26 1 -49 -3 -39 -8 -42 -7 -46 18 -3 14 -1 28 4
29 5 2 9 10 9 17 0 18 28 34 59 35 18 0 22 -4 18 -20z m113 10 c0 -5 -4 -10
-10 -10 -5 0 -10 5 -10 10 0 6 5 10 10 10 6 0 10 -4 10 -10z m180 -24 c0 -21
-21 -31 -30 -15 -5 7 -6 17 -4 21 9 14 34 9 34 -6z m1230 4 c8 -5 11 -10 5
-10 -5 0 -17 5 -25 10 -8 5 -10 10 -5 10 6 0 17 -5 25 -10z m-1316 -52 c9 -19
8 -30 -6 -58 -36 -72 -73 -93 -82 -47 -5 19 -2 72 3 72 1 0 4 16 7 34 2 19 10
38 16 42 15 9 47 -13 62 -43z m223 30 c7 -6 18 -8 25 -5 21 8 60 -11 52 -25
-6 -9 -3 -9 9 1 15 12 17 11 17 -3 0 -9 -4 -16 -10 -16 -5 0 -7 -7 -4 -15 4
-8 2 -15 -4 -15 -5 0 -15 7 -22 15 -19 23 -35 18 -36 -10 -2 -25 7 -30 49 -26
9 1 17 -4 17 -12 0 -17 37 -30 46 -16 9 15 27 10 20 -6 -3 -8 -1 -15 3 -15 5
0 7 -9 4 -20 -3 -13 -14 -20 -29 -20 -34 0 -38 -17 -10 -45 l25 -25 -27 6
c-38 9 -42 13 -42 35 0 10 -4 19 -9 19 -5 0 -7 -9 -4 -20 4 -15 0 -20 -16 -20
-11 0 -21 6 -21 14 0 17 -32 26 -53 15 -11 -7 -17 -4 -22 11 -3 11 -4 24 -1
29 3 5 -6 12 -19 15 -14 4 -23 11 -20 16 3 5 1 11 -5 15 -6 4 -8 10 -5 15 3 4
-2 10 -10 14 -8 3 -14 0 -12 -6 1 -6 -4 -13 -12 -15 -8 -4 -12 0 -9 8 5 14 -9
33 -29 40 -7 2 -9 9 -4 17 6 9 14 10 34 3 21 -8 25 -7 21 4 -3 7 -12 11 -20 8
-8 -3 -14 0 -14 6 0 6 5 11 10 11 6 0 10 8 10 18 0 16 7 18 58 14 31 -2 63 -9
69 -14z m1303 12 c0 -5 -4 -10 -10 -10 -5 0 -10 5 -10 10 0 6 5 10 10 10 6 0
10 -4 10 -10z m-540 -10 c0 -5 -4 -10 -10 -10 -5 0 -10 5 -10 10 0 6 5 10 10
10 6 0 10 -4 10 -10z m210 -16 c0 -8 -5 -12 -10 -9 -6 4 -8 11 -5 16 9 14 15
11 15 -7z m-1550 -8 c0 -3 -4 -8 -10 -11 -5 -3 -10 -1 -10 4 0 6 5 11 10 11 6
0 10 -2 10 -4z m1215 -6 c-4 -6 -11 -8 -16 -5 -5 4 -9 2 -9 -4 0 -15 -36 -32
-54 -25 -26 10 -18 25 9 18 18 -4 27 -1 31 10 3 9 15 16 26 16 10 0 16 -5 13
-10z m-442 -29 c12 -2 8 -21 -8 -37 -13 -13 -17 -13 -39 1 -40 27 -39 42 2 40
21 -1 40 -3 45 -4z m1137 -1 c0 -5 -4 -10 -10 -10 -5 0 -10 5 -10 10 0 6 5 10
10 10 6 0 10 -4 10 -10z m-110 -35 c0 -8 9 -20 21 -28 18 -13 19 -18 9 -37
-11 -20 -12 -20 -24 -4 -8 11 -21 15 -35 11 -24 -6 -27 2 -8 23 6 7 -1 4 -18
-7 -43 -29 -91 -38 -98 -19 -4 10 -1 16 8 16 8 0 15 4 15 9 0 5 23 11 51 15
39 5 52 12 56 26 6 21 23 17 23 -5z m184 14 c3 -3 -6 -6 -20 -7 -14 -1 -23 2
-20 7 6 9 31 9 40 0z m-2144 -18 c0 -6 -5 -13 -12 -17 -7 -5 -8 -3 -3 6 6 10
3 12 -13 8 -12 -4 -25 -2 -28 3 -3 5 9 9 25 9 17 0 31 -4 31 -9z m40 -21 c0
-5 -4 -10 -10 -10 -5 0 -10 5 -10 10 0 6 5 10 10 10 6 0 10 -4 10 -10z m-390
-10 c0 -4 -6 -12 -12 -18 -10 -10 -7 -12 12 -10 17 2 25 -2 25 -12 0 -18 -74
-25 -76 -7 -1 7 -3 21 -4 32 -2 16 4 20 26 20 16 0 29 -2 29 -5z m1555 0 c3
-5 2 -10 -4 -10 -5 0 -13 5 -16 10 -3 6 -2 10 4 10 5 0 13 -4 16 -10z m415
-10 c0 -5 -7 -10 -16 -10 -8 0 -12 5 -9 10 3 6 10 10 16 10 5 0 9 -4 9 -10z
m-470 -15 c0 -18 1 -18 34 -5 29 11 33 6 12 -16 -22 -21 -52 -17 -70 11 -16
24 -16 25 4 25 11 0 20 -7 20 -15z m-980 -16 c-7 -11 -14 -19 -16 -16 -7 7 7
37 17 37 6 0 5 -9 -1 -21z m1533 6 c4 -8 2 -17 -3 -20 -6 -4 -10 -4 -10 -1 0
2 -3 11 -6 20 -3 9 -2 16 4 16 5 0 12 -7 15 -15z m87 -1 c0 -8 -5 -12 -10 -9
-6 4 -8 11 -5 16 9 14 15 11 15 -7z m-380 -14 c-8 -5 -17 -7 -19 -4 -3 3 1 9
9 14 8 5 17 7 19 4 3 -3 -1 -9 -9 -14z m620 10 c8 -5 11 -12 8 -16 -10 -9 -38
3 -38 16 0 12 10 13 30 0z m-465 -20 c-3 -5 -11 -10 -16 -10 -6 0 -7 5 -4 10
3 6 11 10 16 10 6 0 7 -4 4 -10z m-451 -15 c-4 -8 -7 -15 -9 -15 -2 0 -5 7 -9
15 -3 9 0 15 9 15 9 0 12 -6 9 -15z m486 5 c0 -5 -2 -10 -4 -10 -3 0 -8 5 -11
10 -3 6 -1 10 4 10 6 0 11 -4 11 -10z m-1466 -21 c-6 -11 -24 -2 -24 11 0 5 7
7 15 4 8 -4 12 -10 9 -15z m1270 14 c-5 -5 -12 -12 -16 -18 -4 -6 -8 -2 -8 8
0 9 7 17 17 17 9 0 12 -3 7 -7z m96 -13 c0 -5 -4 -10 -10 -10 -5 0 -10 5 -10
10 0 6 5 10 10 10 6 0 10 -4 10 -10z m-330 -10 c0 -5 -2 -10 -4 -10 -3 0 -8 5
-11 10 -3 6 -1 10 4 10 6 0 11 -4 11 -10z m-756 -39 c-8 -9 -22 12 -17 26 6
15 7 14 13 -3 4 -10 6 -21 4 -23z m1396 23 c0 -2 -9 -4 -21 -4 -11 0 -18 4
-14 10 5 8 35 3 35 -6z m-70 -14 c0 -5 13 -7 30 -3 27 5 31 3 36 -26 4 -17 10
-31 15 -31 5 0 9 -6 9 -14 0 -7 9 -20 20 -27 25 -17 17 -59 -11 -59 -11 0 -19
-4 -19 -10 0 -5 -6 -7 -14 -4 -8 3 -17 1 -21 -5 -3 -6 1 -11 9 -11 9 0 16 -4
16 -10 0 -14 28 -12 33 3 2 6 7 -7 11 -30 5 -25 13 -43 21 -43 14 0 24 -28 18
-47 -7 -21 -29 -15 -43 12 -7 13 -18 21 -24 17 -17 -10 -59 -2 -78 15 -10 9
-18 12 -18 7 0 -5 -7 0 -15 10 -15 19 -15 19 -28 1 -8 -10 -19 -15 -26 -11 -9
6 -9 11 0 23 10 12 10 16 0 23 -8 4 -11 12 -7 18 9 15 -15 21 -40 9 -20 -8
-20 -11 -7 -38 8 -16 20 -29 26 -30 7 0 2 -4 -10 -9 -13 -5 -23 -16 -23 -25 0
-22 -37 -19 -50 5 -7 12 -16 17 -27 13 -14 -5 -15 -1 -10 25 5 24 3 32 -8 32
-9 0 -15 -9 -15 -24 0 -18 -5 -23 -25 -23 -20 0 -25 5 -25 23 0 16 -6 24 -17
24 -15 0 -15 -2 -4 -9 17 -11 7 -41 -14 -41 -8 0 -16 10 -17 23 0 12 -2 28 -2
35 -1 8 -9 20 -19 27 -12 8 -14 15 -8 20 6 3 11 14 11 24 0 9 6 26 14 36 12
16 16 17 30 6 24 -20 61 -6 103 40 32 34 43 40 73 38 40 -2 98 10 106 22 7 12
44 11 44 -1z m-1375 -10 c3 -5 1 -10 -4 -10 -6 0 -11 5 -11 10 0 6 2 10 4 10
3 0 8 -4 11 -10z m405 -80 c0 -25 -4 -30 -24 -30 -13 0 -27 7 -30 16 -3 8 -2
13 3 10 4 -3 17 3 27 14 25 25 24 25 24 -10z m-1140 0 c0 -5 -2 -10 -4 -10 -3
0 -8 5 -11 10 -3 6 -1 10 4 10 6 0 11 -4 11 -10z m676 -2 c9 -14 -27 -41 -38
-30 -12 12 1 42 17 42 8 0 17 -5 21 -12z m54 2 c0 -5 -5 -10 -11 -10 -5 0 -7
5 -4 10 3 6 8 10 11 10 2 0 4 -4 4 -10z m26 -6 c-5 -14 -4 -15 8 -5 11 9 16 9
22 0 4 -8 3 -9 -4 -5 -16 9 -15 -7 0 -22 18 -18 1 -14 -22 5 -22 19 -27 43 -9
43 6 0 8 -7 5 -16z m864 -18 c0 -9 -40 -13 -46 -5 -3 5 6 9 20 9 14 0 26 -2
26 -4z m-150 -32 c0 -8 -4 -12 -10 -9 -5 3 -10 10 -10 16 0 5 5 9 10 9 6 0 10
-7 10 -16z m-435 -4 c-4 -6 5 -10 19 -10 30 0 35 -20 7 -27 -20 -5 -38 -33
-21 -33 17 0 11 -50 -6 -57 -18 -7 -36 15 -29 36 3 8 3 23 -1 34 -5 16 -8 17
-15 6 -6 -10 -9 -8 -9 9 0 12 6 22 14 22 7 0 19 7 26 15 14 17 24 20 15 5z
m1327 -12 c-7 -7 -12 -8 -12 -2 0 14 12 26 19 19 2 -3 -1 -11 -7 -17z m-2421
-11 c-10 -9 -11 -8 -5 6 3 10 9 15 12 12 3 -3 0 -11 -7 -18z m1349 -2 c0 -8
-4 -15 -9 -15 -13 0 -22 16 -14 24 11 11 23 6 23 -9z m58 -9 c4 -17 -13 -44
-22 -35 -2 2 -8 17 -12 33 -6 24 -4 27 12 24 10 -2 20 -12 22 -22z m-104 -36
c-6 -6 -10 -2 -11 12 -2 16 1 18 10 9 7 -7 8 -14 1 -21z m-1270 -27 c-10 -7
-15 -13 -11 -13 4 0 -2 -9 -13 -20 -11 -11 -24 -20 -28 -20 -5 0 -17 9 -27 20
-18 19 -17 20 3 20 11 0 24 -5 28 -11 4 -8 9 -7 15 2 5 8 3 17 -4 21 -9 6 -7
12 7 23 15 11 23 12 34 3 12 -10 11 -14 -4 -25z m727 24 c9 -7 18 -24 21 -39
5 -25 3 -27 -18 -22 -18 5 -24 2 -24 -10 0 -24 -13 -19 -26 8 -10 21 -9 25 10
30 21 6 21 6 -4 26 l-25 20 25 -1 c14 0 32 -5 41 -12z m-582 -9 c15 -9 17 -16
10 -30 -5 -10 -16 -18 -24 -18 -15 0 -55 38 -55 52 0 12 48 10 69 -4z m-249
-18 c0 -5 -4 -10 -10 -10 -5 0 -10 5 -10 10 0 6 5 10 10 10 6 0 10 -4 10 -10z
m974 1 c3 -5 -1 -11 -9 -15 -9 -3 -15 0 -15 9 0 16 16 20 24 6z m96 -6 c0 -8
-7 -15 -15 -15 -13 0 -14 3 -3 15 16 18 18 18 18 0z m-890 -15 c0 -5 -2 -10
-4 -10 -3 0 -8 5 -11 10 -3 6 -1 10 4 10 6 0 11 -4 11 -10z m740 -10 c0 -5 -5
-10 -11 -10 -5 0 -7 5 -4 10 3 6 8 10 11 10 2 0 4 -4 4 -10z m-808 -32 c-6 -6
-15 -8 -19 -4 -4 4 -1 11 7 16 19 12 27 3 12 -12z m1013 12 c-3 -5 -11 -10
-16 -10 -6 0 -7 5 -4 10 3 6 11 10 16 10 6 0 7 -4 4 -10z m55 -6 c0 -2 -7 -4
-15 -4 -8 0 -15 4 -15 10 0 5 7 7 15 4 8 -4 15 -8 15 -10z m-990 -14 c0 -11 5
-20 10 -20 6 0 10 -4 10 -10 0 -14 -11 -12 -33 4 -10 8 -15 20 -11 30 9 22 24
20 24 -4z m373 -17 c-5 -12 -2 -15 10 -10 9 3 17 2 17 -4 0 -6 -8 -9 -17 -7
-19 3 -31 38 -14 38 6 0 7 -8 4 -17z m631 -9 c5 -14 4 -15 -9 -4 -17 14 -19
20 -6 20 5 0 12 -7 15 -16z m876 1 c0 -8 -6 -14 -12 -12 -7 1 -14 -8 -16 -20
-2 -13 1 -23 7 -23 6 0 11 -6 11 -14 0 -19 27 -28 33 -12 3 8 1 18 -5 24 -8 8
-8 16 2 27 8 10 9 15 1 15 -6 0 -11 5 -11 10 0 19 29 10 35 -10 5 -16 12 -19
27 -14 15 4 18 3 13 -6 -4 -7 -1 -16 6 -21 11 -7 9 -10 -8 -15 -13 -4 -23 -10
-23 -15 0 -12 37 -11 45 1 9 15 23 12 45 -10 l20 -20 0 29 c0 21 6 30 21 34
23 6 53 -15 41 -28 -4 -4 4 -1 18 8 25 15 102 18 116 4 12 -11 -18 -87 -34
-87 -8 0 -12 -6 -9 -14 4 -10 1 -13 -9 -9 -8 3 -20 0 -28 -6 -8 -7 -45 -10
-96 -9 -72 3 -83 1 -97 -17 -11 -14 -17 -16 -20 -7 -3 6 -11 12 -19 12 -17 0
-18 12 -2 28 9 9 7 12 -10 12 -13 0 -25 -7 -28 -15 -9 -23 -56 -18 -81 9 -27
28 -30 48 -5 45 30 -3 42 1 42 12 0 6 -9 8 -20 4 -11 -4 -20 -2 -20 4 0 6 4
11 9 11 5 0 7 9 4 20 -3 11 -10 20 -15 20 -5 0 -7 4 -4 9 4 5 0 11 -6 14 -19
6 7 35 35 40 41 8 47 7 47 -8z m360 1 c0 -8 -4 -18 -10 -21 -5 -3 -10 3 -10
14 0 12 5 21 10 21 6 0 10 -6 10 -14z m-455 -6 c-3 -5 -11 -10 -16 -10 -6 0
-7 5 -4 10 3 6 11 10 16 10 6 0 7 -4 4 -10z m-1805 -10 c0 -5 -4 -10 -10 -10
-5 0 -10 5 -10 10 0 6 5 10 10 10 6 0 10 -4 10 -10z m700 -5 c0 -8 -7 -15 -15
-15 -8 0 -15 7 -15 15 0 8 7 15 15 15 8 0 15 -7 15 -15z m473 -1 c10 -3 14
-14 11 -29 -4 -21 3 -28 51 -50 30 -15 55 -30 55 -35 0 -16 -26 -28 -52 -23
-23 4 -28 11 -28 35 0 27 -3 29 -32 26 -21 -2 -32 -9 -34 -21 -5 -35 -13 -47
-29 -41 -12 5 -14 2 -8 -12 6 -16 3 -16 -21 4 -27 21 -30 21 -42 5 -12 -16
-15 -16 -24 -3 -5 8 -8 20 -5 27 2 7 -5 15 -16 18 -10 4 -17 11 -14 16 4 5 -1
12 -9 15 -22 8 -20 21 5 35 17 9 24 8 30 -2 8 -11 12 -10 23 4 11 14 22 17 45
12 21 -4 38 -1 53 9 26 18 22 18 41 10z m-753 -24 c0 -13 -7 -20 -20 -20 -18
0 -19 2 -8 20 7 11 16 20 20 20 5 0 8 -9 8 -20z m410 0 c0 -5 -2 -10 -4 -10
-3 0 -8 5 -11 10 -3 6 -1 10 4 10 6 0 11 -4 11 -10z m950 -14 c10 -13 10 -17
2 -12 -14 9 -37 -11 -46 -42 -5 -16 -13 -21 -29 -18 -12 3 -28 5 -34 5 -27 2
-11 23 33 42 25 11 48 27 51 35 3 8 6 14 7 12 1 -2 8 -12 16 -22z m-980 0 c0
-3 -4 -8 -10 -11 -5 -3 -10 -1 -10 4 0 6 5 11 10 11 6 0 10 -2 10 -4z m990
-57 c0 -5 -4 -9 -10 -9 -5 0 -10 7 -10 16 0 8 5 12 10 9 6 -3 10 -10 10 -16z
m-2043 -36 c2 -6 -2 -13 -10 -16 -8 -3 -13 3 -14 15 -2 20 18 21 24 1z m2593
13 c0 -2 -7 -7 -16 -10 -8 -3 -12 -2 -9 4 6 10 25 14 25 6z m-2504 -63 c-4 -4
-11 -1 -16 7 -16 25 -11 35 7 17 9 -9 13 -20 9 -24z m44 27 c0 -5 -7 -7 -15
-4 -8 4 -15 8 -15 10 0 2 7 4 15 4 8 0 15 -4 15 -10z m-101 -27 c0 -25 -1 -26
-9 -8 -12 27 -12 35 0 35 6 0 10 -12 9 -27z m-31 -28 c-3 -3 -9 2 -12 12 -6
14 -5 15 5 6 7 -7 10 -15 7 -18z m323 -83 c-7 -2 -18 1 -23 6 -8 8 -4 9 13 5
13 -4 18 -8 10 -11z m-204 -12 c1 -11 -4 -20 -12 -20 -14 0 -27 24 -18 34 13
13 29 5 30 -14z m-77 0 c0 -5 -2 -10 -4 -10 -3 0 -8 5 -11 10 -3 6 -1 10 4 10
6 0 11 -4 11 -10z m123 -25 c4 -8 2 -17 -3 -20 -6 -4 -10 3 -10 14 0 25 6 27
13 6z m181 -1 c8 -21 8 -24 -5 -24 -5 0 -7 5 -4 10 3 6 1 10 -4 10 -6 0 -11 5
-11 10 0 16 17 12 24 -6z m1071 -54 c3 -5 -1 -10 -10 -10 -9 0 -13 5 -10 10 3
6 8 10 10 10 2 0 7 -4 10 -10z m1043 -2 c7 -7 12 -17 12 -22 0 -6 -5 -3 -11 6
-5 10 -16 15 -24 12 -8 -4 -15 -1 -15 5 0 15 23 14 38 -1z m-1648 -22 c0 -3
-4 -8 -10 -11 -5 -3 -10 -1 -10 4 0 6 5 11 10 11 6 0 10 -2 10 -4z m33 -26
c-3 -12 -8 -19 -11 -16 -5 6 5 36 12 36 2 0 2 -9 -1 -20z m1434 4 c-3 -3 -12
-4 -19 -1 -8 3 -5 6 6 6 11 1 17 -2 13 -5z m298 -15 c-3 -4 1 -10 7 -13 9 -3
7 -9 -7 -21 -18 -15 -20 -15 -23 0 -2 10 -10 14 -19 11 -22 -9 -36 3 -23 19
12 14 73 18 65 4z m-1300 -9 c3 -5 1 -10 -4 -10 -6 0 -11 5 -11 10 0 6 2 10 4
10 3 0 8 -4 11 -10z m-1055 -12 c0 -4 10 -8 22 -10 12 -2 24 -9 26 -17 3 -10
0 -12 -14 -7 -15 6 -16 4 -7 -5 9 -9 9 -15 -2 -25 -7 -8 -15 -19 -18 -26 -3
-9 -9 -7 -21 7 -8 11 -16 15 -16 8 0 -7 -5 -13 -11 -13 -8 0 -8 5 1 15 12 14
11 30 -5 66 -5 13 -1 17 19 15 14 0 26 -4 26 -8z m2000 -37 c0 -5 -7 -11 -15
-15 -15 -5 -20 5 -8 17 9 10 23 9 23 -2z m40 -10 c0 -12 -20 -25 -27 -18 -7 7
6 27 18 27 5 0 9 -4 9 -9z m-1533 -48 c-3 -10 -5 -4 -5 12 0 17 2 24 5 18 2
-7 2 -21 0 -30z m345 1 c-4 -23 -6 -24 -14 -10 -11 19 -3 50 11 42 4 -3 6 -17
3 -32z m338 26 c0 -5 -5 -10 -11 -10 -5 0 -7 5 -4 10 3 6 8 10 11 10 2 0 4 -4
4 -10z m-984 -42 c5 -7 9 -20 9 -30 1 -13 -5 -16 -28 -13 -39 5 -43 11 -22 35
21 23 31 25 41 8z m1732 -24 c19 -29 26 -33 37 -24 11 9 18 8 30 -4 9 -9 14
-16 10 -16 -3 0 -3 -6 2 -12 4 -7 8 -20 8 -28 0 -12 12 -14 59 -11 50 3 58 1
53 -12 -3 -9 1 -18 9 -21 9 -3 16 3 20 19 8 30 20 32 34 4 10 -17 14 -18 27
-7 15 12 15 11 2 -9 -8 -13 -18 -23 -24 -24 -5 -1 -23 -2 -40 -4 -16 -2 -37
-4 -45 -6 -10 -3 -16 5 -18 22 -3 25 -5 26 -42 19 -34 -6 -42 -4 -54 15 -8 12
-23 22 -33 23 -43 5 -65 1 -79 -13 -19 -18 -34 -19 -34 -2 0 6 -7 25 -15 41
-18 33 -16 56 5 73 29 24 64 15 88 -23z m-1464 -6 c-3 -10 -1 -18 5 -18 6 0
11 -4 11 -9 0 -5 -9 -7 -20 -4 -11 3 -20 11 -20 19 0 7 -8 18 -17 23 -15 8
-12 10 14 8 26 -2 32 -6 27 -19z m-397 -20 c-3 -8 -6 -5 -6 6 -1 11 2 17 5 13
3 -3 4 -12 1 -19z m605 2 c23 0 29 -4 24 -15 -3 -8 -1 -15 5 -15 5 0 21 -12
35 -27 28 -30 68 -40 90 -22 19 15 64 20 64 7 0 -42 -92 -120 -114 -97 -16 15
-44 10 -66 -13 -19 -21 -21 -21 -33 -3 -12 16 -14 16 -20 1 -4 -9 -11 -16 -17
-16 -6 0 -8 5 -4 12 4 7 8 22 9 35 1 26 -21 36 -65 31 -22 -3 -25 1 -28 35 -2
28 1 37 12 37 8 0 18 -4 21 -10 3 -5 13 -10 22 -10 15 0 15 2 1 18 -20 22 -6
67 18 58 9 -3 29 -6 46 -6z m968 0 c0 -5 -5 -10 -11 -10 -5 0 -7 5 -4 10 3 6
8 10 11 10 2 0 4 -4 4 -10z m-1660 -10 c0 -5 -4 -10 -10 -10 -5 0 -10 5 -10
10 0 6 5 10 10 10 6 0 10 -4 10 -10z m890 -21 c0 -5 -4 -9 -10 -9 -5 0 -10 7
-10 16 0 8 5 12 10 9 6 -3 10 -10 10 -16z m1308 -4 c-2 -1 -18 -5 -35 -8 -23
-5 -33 -3 -33 6 0 9 11 12 36 9 19 -2 34 -5 32 -7z m69 -12 c-1 -7 10 -23 25
-35 14 -13 29 -34 33 -48 4 -14 4 -22 0 -18 -5 5 -21 -6 -36 -23 l-28 -31 6
33 c2 19 5 36 6 39 0 3 -5 17 -11 32 -8 19 -16 26 -27 22 -17 -7 -21 11 -5 21
6 4 8 10 5 15 -3 5 4 8 15 7 11 -1 19 -7 17 -14z m-1088 -74 c-7 -4 -17 -5
-21 -3 -5 3 -11 -2 -14 -11 -6 -14 -9 -14 -25 4 -23 24 -25 53 -4 45 8 -4 12
-11 9 -16 -4 -6 -1 -9 7 -6 8 2 18 14 24 26 10 22 10 22 23 -4 11 -22 12 -28
1 -35z m-639 22 c0 -23 -9 -31 -25 -24 -11 4 -11 10 -3 29 12 26 28 23 28 -5z
m1560 -27 c0 -8 -5 -12 -10 -9 -6 4 -8 11 -5 16 9 14 15 11 15 -7z m-1532 -24
c1 -32 -7 -37 -26 -18 -6 6 -15 8 -19 4 -5 -4 0 -13 9 -20 10 -7 14 -16 10
-21 -4 -4 3 -4 15 -1 19 6 22 4 17 -9 -4 -9 -7 -26 -8 -38 -1 -31 -46 -33 -46
-3 0 30 -15 50 -30 41 -9 -5 -11 -4 -6 3 4 7 2 12 -3 12 -6 0 -11 -4 -11 -8 0
-5 -7 -17 -16 -28 -15 -19 -15 -19 -6 0 7 14 6 24 -5 34 -12 13 -12 17 2 31 8
10 15 23 15 30 0 7 5 9 10 6 7 -4 7 -12 0 -25 -13 -25 -13 -30 5 -30 13 0 19
11 16 32 0 3 13 9 29 13 17 4 30 11 30 16 0 5 4 9 8 9 5 0 9 -13 10 -30z m672
7 c0 -7 -7 -22 -15 -33 -14 -18 -14 -18 -10 4 6 36 25 58 25 29z m-1394 -34
c-10 -10 -19 5 -10 18 6 11 8 11 12 0 2 -7 1 -15 -2 -18z m426 -8 c0 -5 -5
-11 -11 -13 -6 -2 -11 4 -11 13 0 9 5 15 11 13 6 -2 11 -8 11 -13z m908 -5 c0
-5 5 -9 12 -7 15 3 23 -32 10 -45 -6 -6 -16 -7 -22 -3 -9 6 -9 10 1 16 11 8
11 11 -3 20 -19 11 -24 29 -8 29 6 0 10 -4 10 -10z m-400 -32 c0 -9 4 -8 10 2
10 16 11 14 13 -35 2 -28 5 -30 40 -30 38 -1 52 20 22 31 -8 4 -15 12 -15 20
0 19 51 18 76 -1 10 -8 28 -15 40 -15 31 0 89 -43 90 -65 1 -11 7 -33 13 -48
6 -16 11 -39 11 -52 0 -26 -18 -44 -29 -27 -4 7 -12 6 -23 -2 -19 -14 -14 -28
7 -20 7 3 15 -5 19 -18 6 -22 7 -22 21 -4 13 17 14 17 21 -10 4 -16 16 -49 26
-73 15 -35 16 -46 6 -53 -10 -6 -10 -8 -1 -8 7 0 10 -7 7 -15 -4 -9 0 -15 9
-15 10 0 13 -7 10 -19 -3 -10 0 -22 5 -25 9 -6 7 -52 -3 -83 -2 -7 -14 -13
-25 -13 -11 0 -20 -4 -20 -10 0 -5 16 -9 35 -8 28 1 35 5 36 22 1 18 2 18 9
-4 4 -14 8 -29 9 -35 2 -17 -72 -51 -109 -51 -32 1 -35 3 -32 29 2 20 -1 27
-9 22 -8 -5 -9 -1 -4 14 6 20 -6 27 -37 22 -9 -1 -11 13 -8 46 1 20 -2 22 -29
17 -20 -4 -31 -2 -31 5 0 6 4 11 9 11 5 0 11 7 15 15 4 12 -3 14 -42 10 -46
-5 -46 -5 -18 8 18 9 24 17 17 21 -6 4 -11 15 -11 25 0 15 -7 18 -35 17 -24
-1 -35 -6 -35 -16 0 -13 -2 -13 -9 0 -14 20 -4 30 29 30 38 0 48 18 15 26 -13
3 -23 10 -20 14 3 5 14 6 25 3 27 -7 35 18 17 59 -20 46 -36 118 -26 118 8 0
29 -42 43 -82 3 -10 11 -18 19 -18 7 0 14 -13 15 -32 1 -23 -1 -29 -7 -19 -7
11 -8 -23 -1 -59 0 -3 7 4 16 15 12 17 16 18 24 5 5 -8 7 -17 4 -22 -11 -18
41 -83 59 -74 49 26 61 36 45 36 -10 0 -18 7 -18 16 0 10 -5 14 -15 10 -20 -7
-30 17 -16 42 6 11 7 23 3 27 -4 3 -7 10 -7 14 0 6 -10 19 -41 54 -6 7 -15 24
-19 37 -4 14 -12 31 -17 37 -6 7 -8 24 -4 37 3 13 -1 39 -9 57 -8 19 -14 28
-15 22 0 -7 -6 -13 -14 -13 -8 0 -17 -6 -19 -12 -4 -10 -8 -9 -16 2 -9 12 -10
9 -7 -12 3 -15 0 -30 -5 -34 -13 -7 -69 38 -64 53 2 6 -3 14 -11 17 -9 3 -13
10 -9 15 3 5 1 12 -5 16 -5 3 -10 -1 -10 -9 0 -25 -17 -18 -22 8 -5 24 7 46
24 46 4 0 8 -6 8 -12z m-370 -38 c0 -5 -7 -10 -15 -10 -8 0 -15 5 -15 10 0 6
7 10 15 10 8 0 15 -4 15 -10z m-353 -51 c-6 -10 -18 -19 -25 -19 -9 0 -12 -6
-8 -15 3 -9 0 -15 -8 -15 -25 0 -26 14 -1 46 14 18 25 39 25 46 1 8 6 6 15 -6
11 -14 11 -22 2 -37z m1311 29 c-3 -7 -13 -15 -24 -17 -16 -3 -17 -1 -5 13 16
19 34 21 29 4z m-934 -29 c-10 -16 -24 -9 -24 12 0 18 2 19 15 9 8 -7 12 -16
9 -21z m759 24 c-7 -2 -21 -2 -30 0 -10 3 -4 5 12 5 17 0 24 -2 18 -5z m-253
-33 c0 -5 -5 -10 -11 -10 -5 0 -7 5 -4 10 3 6 8 10 11 10 2 0 4 -4 4 -10z
m596 -33 c8 -25 1 -29 -27 -18 -13 5 -20 10 -16 10 4 1 3 9 -2 20 -6 10 -8 21
-5 24 9 9 44 -16 50 -36z m144 19 c0 -21 -20 -30 -33 -17 -9 9 -8 14 3 21 21
14 30 12 30 -4z m549 10 c-12 -10 -59 -15 -59 -6 0 5 14 10 32 10 17 0 29 -2
27 -4z m-941 -40 c3 -20 0 -27 -10 -24 -7 3 -14 17 -16 32 -3 20 0 27 10 24 7
-3 14 -17 16 -32z m330 1 c14 6 15 5 2 -9 -19 -20 -30 -14 -29 15 1 16 3 17 6
5 3 -11 10 -15 21 -11z m-465 -9 c15 -7 27 -17 27 -21 0 -5 4 -6 9 -3 5 3 14
-1 21 -9 10 -12 10 -21 1 -41 -15 -33 -14 -33 9 -27 11 3 27 0 35 -7 12 -10
13 -6 9 29 -4 33 -2 41 11 41 9 0 29 7 45 15 28 14 31 14 47 -5 10 -11 29 -21
43 -21 17 -1 19 -3 8 -6 -10 -2 -18 -8 -19 -11 -6 -48 -5 -52 13 -52 10 0 18
-4 18 -10 0 -5 11 -12 25 -16 14 -3 25 -12 25 -19 0 -7 6 -15 12 -17 10 -4 10
-10 0 -32 -7 -16 -10 -36 -7 -46 3 -11 -2 -20 -17 -28 -18 -8 -19 -11 -5 -11
9 -1 17 -8 17 -17 0 -8 5 -12 10 -9 6 3 12 -1 15 -9 3 -9 8 -24 12 -33 6 -17
5 -44 -2 -51 -2 -2 -19 -5 -39 -8 -20 -2 -40 -5 -44 -5 -26 -4 -41 3 -36 16 5
11 2 13 -10 9 -9 -3 -16 -10 -16 -14 0 -14 -32 -21 -46 -9 -8 6 -14 23 -13 38
0 14 -4 59 -10 100 -7 48 -7 77 -1 81 5 3 1 11 -9 17 -17 11 -18 8 -16 -50 2
-51 0 -64 -16 -75 -10 -7 -19 -19 -19 -26 0 -7 -12 -13 -30 -13 -38 0 -39 21
-4 53 l25 24 -26 10 c-33 13 -38 13 -30 0 3 -5 4 -10 1 -10 -9 0 -33 53 -41
90 l-6 35 22 -35 c13 -21 24 -30 27 -22 2 7 -4 22 -14 33 -9 10 -17 33 -17 49
0 17 -4 30 -8 30 -10 0 -29 60 -27 88 3 26 5 26 41 10z m1164 -4 c-3 -3 -12
-4 -19 -1 -8 3 -5 6 6 6 11 1 17 -2 13 -5z m-1666 -31 c13 -16 12 -17 -3 -4
-17 13 -22 21 -14 21 2 0 10 -8 17 -17z m276 -5 c-3 -8 -6 -5 -6 6 -1 11 2 17
5 13 3 -3 4 -12 1 -19z m1393 18 c0 -3 -4 -8 -10 -11 -5 -3 -10 -1 -10 4 0 6
5 11 10 11 6 0 10 -2 10 -4z m-754 -28 c4 4 2 -1 -5 -10 -16 -22 -31 -14 -31
15 1 20 2 21 14 5 7 -10 17 -14 22 -10z m34 12 c0 -5 -2 -10 -4 -10 -3 0 -8 5
-11 10 -3 6 -1 10 4 10 6 0 11 -4 11 -10z m-1390 -10 c0 -5 -9 -10 -21 -10
-11 0 -17 5 -14 10 3 6 13 10 21 10 8 0 14 -4 14 -10z m2100 -7 c0 -5 -4 -14
-9 -22 -11 -17 -32 -5 -24 14 5 15 33 21 33 8z m-1620 -13 c0 -5 -5 -10 -11
-10 -5 0 -7 5 -4 10 3 6 8 10 11 10 2 0 4 -4 4 -10z m37 -45 c-4 -8 -12 -15
-19 -14 -10 0 -10 2 0 6 6 2 12 12 12 21 0 8 3 13 6 9 4 -3 4 -13 1 -22z
m-664 -8 c3 -8 -3 -13 -14 -13 -19 0 -24 8 -12 19 10 11 20 8 26 -6z m708 -30
c-8 -8 -11 -3 -11 19 1 25 2 27 11 11 8 -14 8 -22 0 -30z m-811 8 c0 -8 -4
-15 -8 -15 -5 0 -9 7 -9 15 0 8 4 15 9 15 4 0 8 -7 8 -15z m857 -41 c-3 -3
-12 -4 -19 -1 -8 3 -5 6 6 6 11 1 17 -2 13 -5z m963 -40 c0 -8 -5 -12 -10 -9
-6 4 -8 11 -5 16 9 14 15 11 15 -7z m-1605 -14 c3 -5 1 -10 -4 -10 -6 0 -11 5
-11 10 0 6 2 10 4 10 3 0 8 -4 11 -10z m1503 -10 c23 -22 30 -36 11 -24 -6 3
-15 0 -20 -7 -5 -8 -3 -17 4 -21 9 -6 9 -8 -1 -8 -7 0 -15 8 -18 18 -3 9 -10
25 -15 34 -12 23 -11 28 4 28 7 0 23 -9 35 -20z m-1831 -13 c-6 -20 -27 -19
-27 2 0 14 5 19 15 14 9 -3 14 -10 12 -16z m1963 -8 c0 -7 8 -18 18 -26 11 -9
12 -13 3 -11 -19 5 -48 48 -32 48 6 0 11 -5 11 -11z m-1619 -16 c13 -16 12
-17 -3 -4 -17 13 -22 21 -14 21 2 0 10 -8 17 -17z m706 11 c-3 -3 -12 -4 -19
-1 -8 3 -5 6 6 6 11 1 17 -2 13 -5z m-557 -16 c0 -4 -9 -8 -20 -8 -11 0 -20 4
-20 8 0 4 9 8 20 8 11 0 20 -4 20 -8z m-110 -8 c0 -5 -4 -10 -10 -10 -5 0 -10
5 -10 10 0 6 5 10 10 10 6 0 10 -4 10 -10z m1470 -60 c-6 -11 -13 -20 -15 -20
-3 0 -5 9 -5 20 0 11 7 20 15 20 13 0 14 -4 5 -20z m-1762 -25 c0 -20 -3 -23
-13 -15 -10 8 -16 6 -24 -7 -9 -17 -10 -17 -16 -1 -8 20 2 41 16 33 5 -4 12 1
15 9 9 23 22 11 22 -19z m932 25 c0 -5 -4 -10 -10 -10 -5 0 -10 5 -10 10 0 6
5 10 10 10 6 0 10 -4 10 -10z m-622 -37 c9 -20 9 -30 1 -37 -9 -8 -10 -8 -5 1
4 7 -2 20 -13 30 -11 9 -18 20 -15 25 9 14 19 9 32 -19z m712 7 c0 -5 -9 -10
-21 -10 -11 0 -17 5 -14 10 3 6 13 10 21 10 8 0 14 -4 14 -10z m620 -10 c0 -5
-2 -10 -4 -10 -3 0 -8 5 -11 10 -3 6 -1 10 4 10 6 0 11 -4 11 -10z m-610 -30
c-20 -13 -33 -13 -25 0 3 6 14 10 23 10 15 0 15 -2 2 -10z m-1090 -14 c0 -3
-4 -8 -10 -11 -5 -3 -10 -1 -10 4 0 6 5 11 10 11 6 0 10 -2 10 -4z m702 -28
c-7 -7 -12 -8 -12 -2 0 14 12 26 19 19 2 -3 -1 -11 -7 -17z m438 12 c0 -5 -2
-10 -4 -10 -3 0 -8 5 -11 10 -3 6 -1 10 4 10 6 0 11 -4 11 -10z m-390 -10 c0
-5 -5 -10 -11 -10 -5 0 -7 5 -4 10 3 6 8 10 11 10 2 0 4 -4 4 -10z m-90 -17
c0 -4 -10 -17 -21 -29 -17 -18 -26 -21 -40 -13 -11 5 -19 14 -19 19 0 15 37
12 44 -2 4 -7 4 -3 2 10 -3 16 1 22 15 22 10 0 19 -3 19 -7z m902 -20 c4 -2 5
-9 3 -16 -6 -15 49 -53 70 -49 8 2 15 -2 15 -9 0 -6 -8 -9 -20 -6 -13 3 -20 0
-20 -10 0 -8 5 -11 10 -8 6 3 10 1 10 -5 0 -6 5 -8 10 -5 6 3 10 -1 10 -9 0
-9 -6 -16 -14 -16 -22 0 -28 -17 -16 -40 17 -31 -13 -26 -42 8 -13 15 -31 26
-40 24 -16 -3 -23 8 -19 31 1 5 -4 7 -11 5 -20 -7 -53 41 -39 55 6 6 11 7 11
1 0 -5 12 -10 28 -9 23 0 27 -4 24 -25 -2 -20 -1 -22 7 -10 16 23 13 35 -14
64 -18 19 -31 25 -45 21 -14 -5 -20 -2 -20 10 0 14 7 15 48 9 26 -3 50 -8 54
-11z m-131 -13 c21 -12 27 -74 9 -85 -11 -7 -40 52 -40 80 0 18 5 19 31 5z
m785 -15 c-4 -24 -13 -27 -19 -5 -3 13 0 20 8 20 7 0 12 -7 11 -15z m-856 -25
c-14 -10 -27 -17 -29 -14 -6 5 31 33 44 33 6 1 -1 -8 -15 -19z m-93 -4 c-3 -7
-2 -29 2 -48 6 -26 4 -45 -9 -71 -10 -21 -14 -39 -9 -43 5 -3 9 1 10 8 0 7 6
2 12 -12 7 -14 18 -26 26 -28 12 -3 12 0 2 12 -18 21 -7 46 17 40 10 -3 24 1
31 10 16 19 41 10 41 -16 0 -10 4 -17 9 -13 15 9 29 -27 20 -55 -4 -14 -7 -19
-8 -11 -1 7 -7 11 -15 8 -21 -8 -27 3 -14 27 9 17 8 19 -3 9 -7 -7 -22 -13
-32 -13 -14 0 -17 -5 -13 -16 5 -13 3 -14 -6 -7 -7 6 -38 10 -68 9 -30 -1 -66
3 -78 8 -21 9 -23 15 -18 46 3 19 6 43 6 54 0 14 5 17 25 12 23 -6 24 -4 18
25 -6 29 -4 31 17 24 20 -6 22 -4 18 19 -4 21 1 31 21 35 2 1 1 -5 -2 -13z
m131 -2 c-4 -3 1 -22 9 -42 l15 -37 -21 20 c-18 16 -25 17 -42 7 -10 -7 -19
-9 -19 -6 0 13 42 64 52 64 6 0 9 -3 6 -6z m-98 -14 c0 -5 -2 -10 -4 -10 -3 0
-8 5 -11 10 -3 6 -1 10 4 10 6 0 11 -4 11 -10z m-765 -40 c3 -5 -1 -10 -9 -10
-9 0 -16 5 -16 10 0 6 4 10 9 10 6 0 13 -4 16 -10z m1748 -10 c10 -12 15 -25
11 -31 -3 -5 0 -16 6 -24 10 -12 9 -15 -5 -15 -10 0 -15 -3 -11 -7 13 -13 30
-9 44 9 19 26 44 13 30 -17 -9 -20 -16 -23 -42 -18 -17 3 -37 10 -43 16 -7 5
-29 6 -48 3 -39 -8 -48 7 -15 24 11 6 20 17 20 25 0 7 6 16 13 19 9 5 9 7 -1
12 -14 7 -6 24 11 24 7 0 20 -9 30 -20z m-63 -22 c0 -17 -3 -18 -15 -8 -8 7
-15 19 -15 26 0 8 6 11 15 8 8 -4 15 -15 15 -26z m-848 -3 c-2 -5 -9 -9 -14
-7 -6 2 -20 -5 -32 -15 -20 -17 -20 -17 -6 0 11 16 12 20 0 27 -9 5 -2 8 21 7
19 -1 32 -6 31 -12z m795 -60 c-10 -20 -13 -22 -18 -7 -8 21 -2 32 16 32 10 0
11 -5 2 -25z m-1167 -29 c0 -3 -4 -8 -10 -11 -5 -3 -10 -1 -10 4 0 6 5 11 10
11 6 0 10 -2 10 -4z m1090 -16 c0 -5 -5 -10 -11 -10 -5 0 -7 5 -4 10 3 6 8 10
11 10 2 0 4 -4 4 -10z m65 -20 c-2 -11 0 -20 6 -20 5 0 9 -12 9 -27 -1 -24 -2
-26 -13 -13 -7 9 -19 14 -27 13 -8 -2 -22 1 -29 6 -12 8 -10 15 15 38 32 32
45 33 39 3z m151 -47 c-10 -10 -19 5 -10 18 6 11 8 11 12 0 2 -7 1 -15 -2 -18z
m-1866 9 c0 -13 -12 -22 -22 -16 -10 6 -1 24 13 24 5 0 9 -4 9 -8z m1390 -26
c0 -14 -4 -27 -9 -30 -10 -7 -20 23 -14 42 8 21 23 13 23 -12z m108 -10 c-1
-14 -5 -23 -9 -20 -4 2 -20 -1 -35 -6 -38 -15 -41 -6 -9 24 35 33 55 33 53 2z
m-1146 -3 c-6 -3 -9 -10 -6 -16 4 -7 1 -7 -7 1 -12 11 -12 14 1 22 8 5 17 6
20 3 3 -3 -1 -8 -8 -10z m561 -22 c5 -20 -9 -51 -23 -51 -5 0 -7 7 -4 15 4 8
2 15 -3 15 -5 0 -9 9 -10 20 -2 26 33 27 40 1z m-856 -17 c-3 -3 -12 -4 -19
-1 -8 3 -5 6 6 6 11 1 17 -2 13 -5z m1783 -36 c0 -18 -2 -20 -9 -8 -6 8 -7 18
-5 22 9 14 14 9 14 -14z m-370 2 c0 -5 -5 -10 -11 -10 -5 0 -7 5 -4 10 3 6 8
10 11 10 2 0 4 -4 4 -10z m460 -20 c-8 -5 -16 -8 -17 -6 -2 2 -1 11 3 20 5 13
10 14 18 6 8 -8 7 -13 -4 -20z m-1900 11 c0 -11 -19 -25 -38 -27 -10 -2 -8 3
4 17 18 20 34 25 34 10z m1850 -23 c0 -5 -6 -8 -14 -8 -9 0 -12 7 -9 21 4 16
8 17 14 7 5 -7 9 -16 9 -20z m-1086 10 c-5 -8 -2 -9 10 -5 21 8 35 -21 15 -34
-20 -12 17 -38 57 -39 35 0 45 -6 38 -24 -5 -13 -123 -12 -135 2 -3 4 -9 27
-12 51 -3 25 -2 39 2 32 6 -9 10 -7 14 8 3 12 8 21 12 21 3 0 3 -5 -1 -12z
m781 -38 c3 -11 4 -24 0 -29 -3 -5 -1 -12 5 -16 18 -11 11 -31 -16 -44 -42
-19 -61 10 -28 43 14 15 14 16 0 16 -9 0 -16 7 -16 16 0 10 6 14 15 10 9 -3
15 0 15 9 0 22 18 18 25 -5z m-205 6 c0 -2 -6 -9 -13 -15 -10 -8 -14 -7 -14 4
0 8 6 15 14 15 7 0 13 -2 13 -4z m-888 -33 c-2 -16 -11 -35 -18 -44 -8 -9 -11
-18 -8 -22 3 -3 -3 -16 -15 -28 -26 -29 -27 -43 -1 -36 12 3 20 0 20 -8 0 -7
18 -20 40 -29 22 -9 40 -20 40 -26 0 -5 4 -10 10 -10 5 0 7 13 4 30 -5 23 -3
30 9 30 10 0 16 -13 19 -41 3 -34 0 -43 -14 -47 -10 -2 -18 -10 -18 -17 0 -8
-9 -17 -20 -20 -11 -3 -20 -11 -20 -16 0 -15 -27 -10 -34 6 -3 8 -14 15 -25
15 -21 0 -54 37 -45 51 2 5 16 4 31 -2 38 -14 40 -3 3 16 -24 12 -31 22 -27
36 4 16 1 19 -13 14 -28 -9 -42 25 -31 72 5 21 9 30 10 19 1 -15 4 -16 16 -6
14 12 14 15 0 36 -21 32 -19 35 12 19 27 -14 48 -11 38 6 -9 14 4 29 24 29 14
0 17 -6 13 -27z m462 2 c-4 -9 0 -15 7 -15 11 0 11 -3 -1 -10 -16 -10 -44 15
-34 31 9 16 34 10 28 -6z m-854 -17 c0 -10 -9 -9 -35 2 -17 8 -16 8 8 7 15 -1
27 -5 27 -9z m1600 -14 c0 -8 -4 -12 -10 -9 -5 3 -10 10 -10 16 0 5 5 9 10 9
6 0 10 -7 10 -16z m140 2 c0 -2 -8 -10 -17 -17 -16 -13 -17 -12 -4 4 13 16 21
21 21 13z m-329 -49 c-6 -6 -11 -19 -11 -29 0 -21 -40 -26 -41 -5 0 7 -3 6 -6
-3 -6 -14 -28 -40 -35 -40 -2 0 -4 14 -5 30 -2 29 12 37 50 31 17 -3 47 21 48
37 0 12 2 13 6 4 3 -8 0 -19 -6 -25z m-781 -6 c-6 -12 -15 -21 -21 -21 -10 0
-5 13 14 38 15 19 20 7 7 -17z m434 13 c11 -4 14 -14 10 -33 -4 -14 -10 -30
-14 -34 -11 -13 -40 4 -40 23 0 11 -5 22 -10 25 -27 17 18 33 54 19z m186 -8
c0 -2 -7 -6 -15 -10 -8 -3 -15 -1 -15 4 0 6 7 10 15 10 8 0 15 -2 15 -4z m230
-21 c0 -8 -7 -15 -15 -15 -26 0 -18 20 13 29 1 1 2 -6 2 -14z m-182 -28 c2
-18 -1 -27 -11 -27 -9 0 -14 11 -14 30 0 37 21 34 25 -3z m342 23 c0 -5 -4
-10 -10 -10 -5 0 -10 5 -10 10 0 6 5 10 10 10 6 0 10 -4 10 -10z m-986 -15
c-4 -8 -15 -15 -25 -15 -27 0 -24 18 4 23 12 2 23 5 24 6 1 0 0 -6 -3 -14z
m599 -10 c-3 -9 -8 -14 -10 -11 -3 3 -2 9 2 15 9 16 15 13 8 -4z m-1653 -25
c0 -5 -2 -10 -4 -10 -3 0 -8 5 -11 10 -3 6 -1 10 4 10 6 0 11 -4 11 -10z
m1760 0 c0 -5 -4 -10 -10 -10 -5 0 -10 5 -10 10 0 6 5 10 10 10 6 0 10 -4 10
-10z m-660 -20 c0 -5 -4 -10 -10 -10 -5 0 -10 5 -10 10 0 6 5 10 10 10 6 0 10
-4 10 -10z m300 -20 c0 -5 -2 -10 -4 -10 -3 0 -8 5 -11 10 -3 6 -1 10 4 10 6
0 11 -4 11 -10z m-44 -35 c4 -8 3 -23 -1 -32 -6 -17 -7 -17 -20 0 -14 19 -10
47 6 47 5 0 12 -7 15 -15z m484 -9 c0 -2 -7 -9 -15 -16 -12 -10 -15 -10 -15 4
0 9 7 16 15 16 8 0 15 -2 15 -4z m-650 -30 c0 -3 -4 -8 -10 -11 -5 -3 -10 -1
-10 4 0 6 5 11 10 11 6 0 10 -2 10 -4z m-1050 -40 c0 -3 -4 -8 -10 -11 -5 -3
-10 -1 -10 4 0 6 5 11 10 11 6 0 10 -2 10 -4z m718 -11 c2 -2 1 -13 -3 -24 -9
-29 -56 -28 -74 0 -11 18 -11 23 1 30 11 8 66 3 76 -6z m117 -14 c-3 -6 -11
-8 -17 -5 -8 5 -9 -1 -5 -17 4 -14 0 -30 -9 -40 -15 -16 -17 -16 -35 2 -25 25
-24 49 1 56 11 3 20 10 20 15 0 6 7 8 15 4 8 -3 15 0 15 6 0 9 3 9 11 1 6 -6
8 -16 4 -22z m1149 14 c-6 -16 -24 -21 -24 -7 0 11 11 22 21 22 5 0 6 -7 3
-15z m-174 -39 c0 -3 -4 -8 -10 -11 -5 -3 -10 -1 -10 4 0 6 5 11 10 11 6 0 10
-2 10 -4z m-1490 -26 c0 -5 -4 -10 -10 -10 -5 0 -10 5 -10 10 0 6 5 10 10 10
6 0 10 -4 10 -10z m350 -6 c0 -3 -5 -14 -10 -25 -13 -23 -3 -25 22 -2 17 15
19 15 37 -1 18 -17 20 -17 29 1 10 17 11 17 18 -2 4 -11 12 -23 18 -27 7 -5 7
-8 -1 -8 -7 0 -13 -8 -13 -17 0 -13 3 -14 12 -5 7 7 18 12 26 12 8 0 20 7 27
16 9 13 18 15 41 7 25 -9 29 -14 26 -42 -3 -29 -1 -32 17 -26 23 7 65 -11 56
-25 -3 -4 -14 -6 -25 -3 -12 3 -29 -2 -41 -13 -21 -18 -21 -18 -18 0 2 10 -2
21 -10 24 -8 3 -11 0 -7 -7 4 -6 1 -11 -6 -11 -16 0 -42 -55 -33 -70 9 -14
-18 -13 -33 2 -9 9 -12 8 -12 -5 0 -9 4 -17 10 -17 5 0 8 -23 6 -51 -2 -36 1
-52 11 -56 10 -4 9 -9 -8 -21 -20 -14 -22 -13 -31 3 -8 13 -12 14 -18 5 -14
-23 -48 23 -44 60 4 30 2 32 -21 28 -39 -8 -113 70 -83 88 7 4 4 10 -7 17 -13
7 -14 11 -5 17 9 6 9 13 1 29 -15 28 2 27 22 -1 15 -22 15 -21 12 27 -2 28 -4
54 -4 58 -1 5 -5 5 -11 2 -5 -3 -10 -1 -10 4 0 6 6 11 14 11 8 0 16 7 20 15 5
14 26 22 26 9z m1220 2 c0 -3 -4 -8 -10 -11 -5 -3 -10 -1 -10 4 0 6 5 11 10
11 6 0 10 -2 10 -4z m-1410 -10 c0 -3 -4 -8 -10 -11 -5 -3 -10 -1 -10 4 0 6 5
11 10 11 6 0 10 -2 10 -4z m1048 -74 c-4 -2 -8 -13 -8 -24 0 -11 -5 -18 -12
-15 -13 4 -14 23 -4 62 2 11 5 22 5 25 1 3 7 -6 14 -20 7 -14 9 -26 5 -28z
m187 32 c15 -15 15 -18 1 -32 -18 -19 -22 -16 -31 21 -8 31 5 36 30 11z m-225
-24 c0 -5 -2 -10 -4 -10 -3 0 -8 5 -11 10 -3 6 -1 10 4 10 6 0 11 -4 11 -10z
m64 -27 c-17 -17 -18 -17 -11 0 4 10 7 24 7 30 0 8 3 8 11 0 9 -9 7 -16 -7
-30z m-1014 23 c0 -3 -4 -8 -10 -11 -5 -3 -10 -1 -10 4 0 6 5 11 10 11 6 0 10
-2 10 -4z m-650 -16 c0 -5 -5 -10 -11 -10 -5 0 -7 5 -4 10 3 6 8 10 11 10 2 0
4 -4 4 -10z m616 -17 c-10 -10 -19 5 -10 18 6 11 8 11 12 0 2 -7 1 -15 -2 -18z
m70 -51 c-11 -10 -14 3 -8 33 l7 30 3 -28 c2 -16 1 -31 -2 -35z m1149 48 c3
-5 1 -10 -4 -10 -6 0 -11 5 -11 10 0 6 2 10 4 10 3 0 8 -4 11 -10z m88 -17
c11 4 14 2 10 -9 -5 -13 -8 -13 -26 -1 -12 8 -23 20 -25 28 -2 8 2 5 10 -5 9
-12 22 -17 31 -13z m-1323 -3 c0 -5 -4 -10 -10 -10 -5 0 -10 5 -10 10 0 6 5
10 10 10 6 0 10 -4 10 -10z m1595 -10 c3 -6 -1 -7 -9 -4 -18 7 -21 14 -7 14 6
0 13 -4 16 -10z m-125 -21 c0 -5 -9 -9 -20 -9 -19 0 -26 11 -14 23 8 8 34 -3
34 -14z m-1840 -19 c0 -5 -2 -10 -4 -10 -3 0 -8 5 -11 10 -3 6 -1 10 4 10 6 0
11 -4 11 -10z m475 0 c-3 -5 -11 -10 -16 -10 -6 0 -7 5 -4 10 3 6 11 10 16 10
6 0 7 -4 4 -10z m1155 -20 c-18 -11 -24 -6 -16 16 5 14 9 15 19 5 9 -9 9 -14
-3 -21z m-866 -22 c-3 -4 -11 -8 -17 -7 -9 0 -9 2 0 5 7 3 9 13 6 22 -4 14 -3
14 5 2 6 -8 8 -18 6 -22z m185 -30 c1 -22 -4 -28 -19 -28 -14 0 -20 7 -20 21
0 16 -5 20 -18 17 -12 -4 -18 1 -19 13 -2 18 22 33 37 24 5 -3 12 0 16 7 9 15
22 -15 23 -54z m841 53 c0 -6 -4 -13 -10 -16 -5 -3 -10 1 -10 9 0 9 5 16 10
16 6 0 10 -4 10 -9z m-1399 -11 c13 -7 19 -7 19 0 0 5 5 10 11 10 6 0 9 -7 6
-15 -7 -16 6 -27 37 -30 11 -1 25 -3 30 -4 5 0 3 -8 -4 -16 -10 -12 -15 -13
-21 -4 -5 9 -14 8 -34 -5 -39 -26 -71 -8 -71 40 0 38 0 38 27 24z m79 -5 c10
-12 10 -15 -4 -15 -9 0 -16 7 -16 15 0 8 2 15 4 15 2 0 9 -7 16 -15z m1310
-30 c0 -8 -4 -17 -10 -20 -5 -3 -10 -2 -10 4 0 5 -3 17 -6 25 -5 12 -2 15 10
10 9 -3 16 -12 16 -19z m-130 -7 c0 -13 -23 -5 -28 10 -2 7 2 10 12 6 9 -3 16
-11 16 -16z m270 2 c0 -5 -4 -10 -10 -10 -5 0 -10 5 -10 10 0 6 5 10 10 10 6
0 10 -4 10 -10z m-783 -62 c-3 -8 -6 -5 -6 6 -1 11 2 17 5 13 3 -3 4 -12 1
-19z m-1067 -48 c0 -5 -4 -10 -10 -10 -5 0 -10 5 -10 10 0 6 5 10 10 10 6 0
10 -4 10 -10z m330 0 c0 -5 -4 -10 -10 -10 -5 0 -10 5 -10 10 0 6 5 10 10 10
6 0 10 -4 10 -10z m410 -10 c24 -15 7 -19 -20 -5 -15 8 -19 14 -10 14 8 1 22
-3 30 -9z m-100 -9 c0 -6 -4 -13 -10 -16 -5 -3 -10 1 -10 9 0 9 5 16 10 16 6
0 10 -4 10 -9z m215 -51 c3 -5 1 -10 -4 -10 -6 0 -11 5 -11 10 0 6 2 10 4 10
3 0 8 -4 11 -10z m-228 -47 c3 -7 -3 -9 -16 -6 -12 3 -21 10 -21 15 0 13 32 6
37 -9z m-487 -3 c0 -5 -5 -10 -11 -10 -5 0 -7 5 -4 10 3 6 8 10 11 10 2 0 4
-4 4 -10z m1705 -70 c3 -5 1 -10 -4 -10 -6 0 -11 5 -11 10 0 6 2 10 4 10 3 0
8 -4 11 -10z m-320 -10 c3 -5 -1 -10 -9 -10 -9 0 -16 5 -16 10 0 6 4 10 9 10
6 0 13 -4 16 -10z m-616 -34 l23 -24 -23 -12 c-20 -11 -21 -10 -16 9 3 14 0
21 -9 21 -8 0 -14 -5 -14 -12 0 -6 -2 -9 -5 -7 -6 7 6 49 14 49 4 0 18 -11 30
-24z m1026 14 c3 -5 -1 -10 -9 -10 -9 0 -16 5 -16 10 0 6 4 10 9 10 6 0 13 -4
16 -10z m-149 -45 c-3 -8 -10 -15 -15 -15 -11 0 -9 19 4 40 11 17 20 -3 11
-25z m-506 15 c0 -5 -9 -10 -20 -10 -11 0 -20 5 -20 10 0 6 9 10 20 10 11 0
20 -4 20 -10z m308 -15 c-3 -3 -9 2 -12 12 -6 14 -5 15 5 6 7 -7 10 -15 7 -18z
m-24 -3 c3 -5 -8 -9 -24 -9 -17 0 -30 4 -30 9 0 4 11 8 24 8 14 0 27 -4 30 -8z
m-624 -42 c0 -10 6 -23 13 -27 23 -15 40 -54 28 -66 -6 -6 -11 -22 -11 -35 0
-19 -3 -22 -13 -13 -17 13 -28 5 -20 -15 3 -10 0 -12 -10 -8 -12 4 -13 12 -7
34 6 20 5 30 -3 33 -8 3 -4 13 11 26 12 12 20 27 16 32 -3 6 -11 4 -18 -6 -10
-14 -14 -14 -35 9 -13 13 -20 29 -17 34 3 6 1 12 -6 14 -7 3 6 5 30 6 35 2 42
-1 42 -18z m-1010 -60 c0 -5 -2 -10 -4 -10 -3 0 -8 5 -11 10 -3 6 -1 10 4 10
6 0 11 -4 11 -10z m1970 -5 c0 -2 -10 -10 -22 -16 -21 -11 -22 -11 -9 4 13 16
31 23 31 12z m-1410 -29 c0 -13 3 -32 7 -41 5 -16 4 -15 -15 1 -25 21 -30 64
-7 64 9 0 15 -9 15 -24z m1187 -4 c-19 -4 -22 -18 -7 -27 14 -9 12 -25 -2 -22
-17 3 -32 41 -19 45 6 2 11 11 11 19 0 13 2 13 17 2 15 -13 15 -14 0 -17z
m-987 -2 c0 -5 -5 -10 -12 -10 -6 0 -3 -10 8 -22 19 -21 19 -21 -3 -16 -14 4
-24 0 -27 -9 -4 -11 -2 -13 9 -9 8 3 15 1 15 -5 0 -6 4 -8 9 -4 21 12 21 -38
0 -95 -17 -49 -24 -58 -35 -49 -11 9 -14 8 -14 -1 0 -8 -3 -10 -6 -7 -4 4 -1
13 6 22 13 16 4 20 -24 9 -8 -3 -12 -12 -9 -21 5 -12 3 -14 -6 -8 -10 5 -11 2
-7 -12 4 -13 -1 -26 -14 -38 -11 -10 -21 -28 -21 -39 -1 -19 -2 -20 -6 -2 -5
19 -6 18 -23 -3 -9 -13 -23 -22 -30 -19 -10 3 -8 10 9 27 22 22 22 23 2 16
-17 -5 -21 -2 -21 15 0 20 -1 21 -25 3 -13 -10 -25 -26 -25 -36 0 -14 -4 -16
-20 -7 -10 6 -17 17 -14 24 4 10 -3 14 -27 13 -41 -2 -49 20 -12 34 15 6 22
13 16 16 -19 7 -16 21 8 34 15 8 19 8 15 0 -11 -17 10 -13 24 4 7 8 17 15 22
15 5 0 -3 -11 -17 -25 -35 -36 -33 -55 7 -50 32 4 67 30 55 41 -4 4 -13 1 -22
-6 -20 -17 -19 -6 1 15 14 13 14 18 2 32 -11 15 -11 16 4 10 17 -6 58 26 58
45 0 4 7 5 15 2 10 -4 15 0 15 15 0 16 -6 21 -27 21 l-27 0 30 31 c27 29 29
29 32 10 2 -12 7 -21 12 -21 9 0 6 -33 -5 -50 -3 -6 -2 -10 4 -10 15 0 54 54
41 58 -8 3 -8 8 1 18 7 8 9 17 6 21 -8 7 23 32 41 33 6 0 12 -4 12 -10z m-148
-32 c-9 -9 -15 -9 -24 0 -9 9 -7 12 12 12 19 0 21 -3 12 -12z m1208 -10 c0
-13 -43 -6 -47 8 -2 7 6 10 22 7 14 -3 25 -10 25 -15z m-110 0 c0 -5 -4 -8
-10 -8 -5 0 -10 -9 -10 -21 0 -12 -5 -19 -12 -16 -7 2 -13 8 -13 13 0 5 -3 14
-7 20 -4 6 -6 13 -4 15 8 7 56 4 56 -3z m-477 -25 c-7 -2 -19 -2 -25 0 -7 3
-2 5 12 5 14 0 19 -2 13 -5z m-953 -15 c0 -4 -7 -8 -15 -8 -8 0 -15 4 -15 8 0
5 7 9 15 9 8 0 15 -4 15 -9z m677 -4 c-3 -3 -12 -4 -19 -1 -8 3 -5 6 6 6 11 1
17 -2 13 -5z m-632 -24 c3 -5 -1 -10 -9 -10 -9 0 -16 5 -16 10 0 6 4 10 9 10
6 0 13 -4 16 -10z m687 -92 c-6 -6 -7 0 -4 19 5 21 7 23 10 9 2 -10 0 -22 -6
-28z m443 -40 c5 4 5 2 1 -5 -9 -16 -36 -5 -36 16 1 14 2 14 14 -1 7 -10 17
-14 21 -10z m-1045 -8 c0 -5 -4 -10 -10 -10 -5 0 -10 5 -10 10 0 6 5 10 10 10
6 0 10 -4 10 -10z m1037 -52 c-3 -7 -5 -2 -5 12 0 14 2 19 5 13 2 -7 2 -19 0
-25z m-976 -32 c-6 -7 -8 -16 -4 -19 3 -4 -1 -7 -10 -7 -9 0 -18 -6 -18 -12
-1 -7 -2 -19 -3 -27 0 -8 -7 -16 -15 -19 -10 -3 -12 0 -8 12 4 10 7 23 7 30 0
20 40 67 51 60 6 -4 6 -10 0 -18z m649 -70 c0 -9 -7 -12 -20 -9 -11 3 -20 9
-20 14 0 5 9 9 20 9 11 0 20 -6 20 -14z m531 -28 c16 -30 7 -74 -13 -70 -10 2
-18 -1 -18 -6 0 -13 -29 -24 -42 -16 -5 3 -1 12 9 20 17 13 17 13 -3 14 -34 0
-51 -29 -49 -85 1 -27 -3 -53 -9 -57 -7 -5 -3 -8 8 -8 16 0 16 -4 -9 -35 -18
-24 -24 -40 -17 -48 5 -7 8 -29 7 -50 l-2 -37 24 22 c12 12 23 28 23 35 0 8 4
11 10 8 6 -4 2 -20 -10 -43 -10 -20 -22 -46 -25 -57 -6 -19 -7 -19 -27 5 -21
26 -22 27 -65 29 -16 1 -23 5 -18 9 6 4 12 21 12 37 2 30 2 30 -9 5 l-10 -25
-9 25 c-14 35 -3 71 18 63 13 -5 15 -2 10 16 -5 19 -2 22 14 18 11 -3 19 0 19
8 0 7 10 19 22 27 26 17 19 48 -12 48 -11 0 -20 7 -20 15 0 8 5 15 10 15 6 0
10 7 10 15 0 9 12 18 29 21 17 4 33 16 40 30 14 32 14 35 -4 28 -20 -8 -20 24
0 47 13 14 22 15 56 7 22 -6 44 -19 50 -30z m-1201 3 c0 -5 3 -18 6 -28 5 -16
4 -16 -10 1 -18 23 -20 36 -6 36 6 0 10 -4 10 -9z m40 -11 c0 -5 -7 -7 -15 -4
-8 4 -12 10 -9 15 6 11 24 2 24 -11z m960 6 c0 -11 -19 -15 -25 -6 -3 5 1 10
9 10 9 0 16 -2 16 -4z m-944 -32 c-4 -9 -9 -15 -11 -12 -3 3 -3 13 1 22 4 9 9
15 11 12 3 -3 3 -13 -1 -22z m648 -20 c13 -5 14 -10 5 -20 -8 -10 -7 -18 6
-30 14 -15 18 -15 27 -3 6 10 8 3 6 -23 -3 -26 0 -38 9 -38 7 0 13 -4 13 -10
0 -5 -7 -10 -15 -10 -8 0 -15 -4 -15 -9 0 -6 9 -9 19 -8 11 0 17 5 15 9 -3 4
2 8 10 8 12 0 36 -53 36 -81 0 -11 -80 -6 -81 5 -1 6 -2 29 -3 52 -1 24 -8 48
-18 58 -10 10 -18 24 -18 32 0 8 -6 14 -14 14 -8 0 -18 5 -22 12 -5 8 -2 9 9
5 18 -7 24 8 7 18 -13 8 -13 25 -1 25 5 0 17 -3 25 -6z m114 -16 c9 -9 12 -9
12 0 0 7 5 12 10 12 16 0 11 -17 -7 -24 -9 -4 -23 0 -32 9 -8 8 -11 15 -5 15
5 0 15 -5 22 -12z m-688 -29 c0 -5 3 -8 8 -6 13 9 29 -18 22 -38 -7 -19 -7
-19 -14 3 -4 12 -11 22 -15 22 -4 0 -16 7 -27 15 -19 14 -18 14 4 15 12 0 22
-5 22 -11z m684 -35 c12 -5 13 -9 3 -19 -14 -15 -27 -10 -27 11 0 16 2 16 24
8z m52 -2 c11 -6 18 -33 15 -57 -1 -9 -41 49 -41 60 0 7 13 6 26 -3z m274 4
c0 -18 -14 -34 -26 -29 -21 8 -17 33 6 33 11 0 20 -2 20 -4z m-230 -26 c0 -5
-4 -10 -10 -10 -5 0 -10 5 -10 10 0 6 5 10 10 10 6 0 10 -4 10 -10z m-1583
-42 c-3 -8 -6 -5 -6 6 -1 11 2 17 5 13 3 -3 4 -12 1 -19z m1643 -33 c-7 -8
-19 -15 -27 -15 -10 0 -14 -7 -10 -20 4 -17 2 -18 -14 -9 -22 11 -27 51 -5 43
9 -3 13 1 13 12 -2 22 46 37 51 17 2 -8 -2 -20 -8 -28z m-1510 -25 c0 -5 -5
-10 -11 -10 -5 0 -7 5 -4 10 3 6 8 10 11 10 2 0 4 -4 4 -10z m15 -37 c-5 -22
-4 -25 8 -15 20 17 27 5 15 -29 -11 -33 -12 -33 -39 -18 -17 8 -19 16 -13 42
5 27 19 46 33 47 2 0 0 -12 -4 -27z m1860 -53 c3 -5 1 -10 -4 -10 -6 0 -11 5
-11 10 0 6 2 10 4 10 3 0 8 -4 11 -10z m-1002 -90 c3 -11 1 -23 -4 -26 -5 -3
-9 6 -9 20 0 31 6 34 13 6z m-673 0 c0 -5 -4 -10 -10 -10 -5 0 -10 5 -10 10 0
6 5 10 10 10 6 0 10 -4 10 -10z m1083 -26 c-4 -12 -8 -13 -14 -3 -9 15 -2 32
11 24 5 -3 6 -13 3 -21z m355 8 c-1 -4 3 -17 10 -30 12 -22 12 -22 -15 -16
-27 6 -27 6 -8 -9 11 -9 26 -17 33 -17 6 0 12 -4 12 -9 0 -5 -6 -12 -12 -14
-9 -4 -10 -8 -2 -14 19 -14 25 -43 9 -43 -8 0 -15 -4 -15 -10 0 -5 -5 -10 -11
-10 -6 0 -9 6 -6 14 5 13 -21 46 -36 46 -4 0 -13 -13 -21 -29 -14 -26 -14 -30
2 -37 9 -4 22 -6 29 -5 6 1 14 -3 18 -9 4 -6 -4 -10 -19 -10 -14 0 -28 5 -31
10 -5 8 -11 8 -19 1 -7 -6 -16 -8 -19 -4 -4 3 -7 -2 -7 -11 0 -13 -5 -16 -17
-11 -10 4 -24 8 -30 8 -14 0 -16 11 -7 44 7 26 34 39 46 21 5 -9 8 -6 8 9 0
12 -6 24 -12 26 -10 4 -10 7 0 15 7 5 10 16 6 25 -5 14 1 17 37 17 30 0 39 3
30 9 -12 8 -12 13 2 35 10 15 23 23 32 20 8 -3 14 -9 13 -12z m-138 -23 c0
-11 -27 -12 -34 0 -3 4 -3 11 0 14 8 8 34 -3 34 -14z m-1375 -69 c3 -4 -7 -7
-20 -7 -14 0 -27 3 -30 7 -3 4 7 8 20 8 14 0 27 -4 30 -8z m1155 -10 c0 -5 -4
-10 -10 -10 -5 0 -10 -9 -10 -20 0 -11 -4 -20 -10 -20 -5 0 -10 5 -10 10 0 6
-7 10 -15 10 -8 0 -15 -7 -15 -15 0 -8 -4 -15 -9 -15 -14 0 -21 43 -9 57 12
15 88 18 88 3z m74 -5 c15 -12 17 -18 8 -27 -9 -9 -16 -7 -32 7 -36 33 -15 50
24 20z m-1074 -15 c0 -5 -5 -10 -11 -10 -5 0 -7 5 -4 10 3 6 8 10 11 10 2 0 4
-4 4 -10z m-60 -15 c0 -8 -4 -15 -10 -15 -5 0 -7 7 -4 15 4 8 8 15 10 15 2 0
4 -7 4 -15z m80 -15 c0 -5 -5 -10 -11 -10 -5 0 -7 5 -4 10 3 6 8 10 11 10 2 0
4 -4 4 -10z m95 -10 c3 -5 1 -10 -4 -10 -6 0 -11 5 -11 10 0 6 2 10 4 10 3 0
8 -4 11 -10z m965 6 c0 -3 -4 -8 -10 -11 -5 -3 -10 -1 -10 4 0 6 5 11 10 11 6
0 10 -2 10 -4z m-1000 -49 c10 -4 8 -6 -7 -6 -16 -1 -23 5 -23 17 0 10 3 13 8
6 4 -6 14 -14 22 -17z m-201 4 c9 -6 10 -11 2 -15 -7 -5 -7 -15 -1 -32 12 -32
13 -57 1 -50 -5 3 -12 -6 -15 -20 -6 -22 -9 -24 -23 -12 -12 9 -15 9 -9 1 4
-8 2 -13 -7 -13 -19 0 -27 53 -10 69 7 6 13 24 13 40 0 40 18 52 49 32z m834
-15 c4 -10 0 -12 -14 -9 -22 6 -26 23 -5 23 8 0 16 -6 19 -14z m394 0 c0 -8
-6 -12 -14 -9 -7 3 -13 9 -13 14 0 5 6 9 13 9 8 0 14 -6 14 -14z m-1004 -17
c-4 -15 -9 -17 -17 -9 -8 8 -7 13 4 20 8 5 16 10 17 10 0 0 -1 -9 -4 -21z
m667 -30 c0 -5 -4 -9 -10 -9 -5 0 -10 7 -10 16 0 8 5 12 10 9 6 -3 10 -10 10
-16z m364 -38 c-6 -6 -24 19 -24 34 1 6 7 1 15 -9 8 -11 12 -22 9 -25z m-1064
19 c0 -5 -4 -10 -10 -10 -5 0 -10 5 -10 10 0 6 5 10 10 10 6 0 10 -4 10 -10z
m-50 -22 c0 -13 -23 -5 -28 10 -2 7 2 10 12 6 9 -3 16 -11 16 -16z m1724 -49
c18 -27 2 -84 -21 -75 -8 3 -21 6 -29 6 -15 0 -18 29 -8 68 8 28 38 29 58 1z
m-1938 -2 c5 4 -7 -10 -26 -31 -21 -24 -28 -37 -17 -33 16 6 25 -7 10 -16 -14
-7 -74 23 -67 34 3 6 12 8 20 5 8 -3 20 6 30 25 11 23 18 28 28 20 7 -6 17 -8
22 -4z m434 3 c0 -5 -5 -10 -11 -10 -5 0 -7 5 -4 10 3 6 8 10 11 10 2 0 4 -4
4 -10z m-540 -14 c0 -3 -4 -8 -10 -11 -5 -3 -10 -1 -10 4 0 6 5 11 10 11 6 0
10 -2 10 -4z m1250 -6 c0 -5 -2 -10 -4 -10 -3 0 -8 5 -11 10 -3 6 -1 10 4 10
6 0 11 -4 11 -10z m280 -31 c8 -14 7 -19 -2 -19 -23 0 -39 16 -32 33 7 19 19
14 34 -14z m129 10 c-16 -10 -23 -4 -14 10 3 6 11 8 17 5 6 -4 5 -9 -3 -15z
m97 -14 c-3 -9 0 -15 10 -15 12 0 15 -7 12 -29 -3 -22 0 -31 14 -34 11 -3 16
-11 12 -21 -5 -12 0 -14 29 -9 20 3 37 1 41 -6 4 -6 16 -11 26 -11 13 0 17 -5
14 -15 -4 -8 -1 -15 5 -15 6 0 11 5 11 11 0 5 4 8 9 4 5 -3 15 0 23 7 7 7 20
14 28 16 8 2 18 8 21 14 10 15 43 5 47 -14 2 -10 -9 -29 -23 -42 -15 -14 -24
-30 -20 -37 4 -6 2 -15 -4 -19 -9 -5 -8 -11 4 -23 15 -15 14 -17 -12 -22 -38
-8 -55 -18 -65 -38 -4 -9 -12 -25 -16 -34 -14 -29 -61 -58 -73 -46 -8 8 -5 16
10 30 20 18 20 21 5 33 -12 11 -20 11 -35 2 -21 -13 -59 -16 -59 -4 0 4 5 14
10 22 8 12 12 13 19 2 6 -11 10 -10 15 3 3 10 2 23 -4 30 -8 9 -6 14 5 19 23
9 18 26 -8 26 -33 0 -40 10 -22 31 15 15 14 19 -11 38 -25 20 -25 21 -5 21 11
0 21 5 21 11 0 7 -9 9 -24 5 -19 -5 -26 -1 -36 24 -14 33 -20 36 -38 18 -15
-15 -19 -10 -24 27 -2 25 0 29 17 27 11 -2 22 -8 23 -13 6 -17 22 -9 34 16 12
27 24 35 14 10z m-1761 -34 c-3 -6 -11 -11 -17 -11 -6 0 -6 6 2 15 14 17 26
13 15 -4z m1647 -6 c-5 -28 -12 -32 -22 -15 -15 24 -11 42 8 38 11 -2 16 -11
14 -23z m-1387 -4 c3 -5 1 -12 -5 -16 -5 -3 -10 1 -10 9 0 18 6 21 15 7z
m1313 0 c10 -6 10 -10 -1 -20 -12 -9 -16 -7 -20 9 -5 21 0 25 21 11z m-121
-12 c44 -15 49 -55 18 -131 -5 -14 -2 -18 14 -18 14 0 21 6 21 19 0 18 3 19
31 9 30 -10 53 -3 33 10 -14 9 -26 42 -15 42 5 0 12 -8 15 -17 5 -12 9 -14 14
-6 5 7 12 -2 18 -23 6 -19 8 -34 5 -34 -3 0 -7 -12 -8 -27 0 -15 -6 -29 -12
-31 -15 -5 -14 -32 2 -32 7 0 14 -11 15 -25 1 -14 -3 -25 -8 -25 -6 0 -10 7
-10 15 0 18 -4 19 -30 3 -28 -17 -39 2 -33 53 4 25 2 39 -6 39 -6 0 -11 -5
-11 -11 0 -12 -29 -38 -42 -39 -4 0 -14 14 -23 30 -17 34 -35 39 -35 12 0 -10
-6 -19 -14 -19 -11 0 -12 5 -3 24 5 13 17 23 25 23 7 0 16 9 19 19 3 12 11 17
19 14 8 -3 14 0 14 6 0 6 -3 11 -8 11 -4 0 -13 9 -20 21 -8 12 -9 18 -3 14 7
-3 11 3 11 15 0 13 -8 24 -20 27 -20 5 -26 23 -13 36 8 9 4 9 40 -4z m-1385
-64 c-4 -5 -8 -2 -10 8 -2 9 -8 15 -13 12 -5 -3 -6 1 -3 10 6 14 8 14 19 -2 7
-10 10 -22 7 -28z m28 20 c0 -8 -2 -15 -4 -15 -2 0 -6 7 -10 15 -3 8 -1 15 4
15 6 0 10 -7 10 -15z m963 -82 c-7 -2 -21 -2 -30 0 -10 3 -4 5 12 5 17 0 24
-2 18 -5z m597 -123 c0 -5 -4 -10 -10 -10 -5 0 -10 5 -10 10 0 6 5 10 10 10 6
0 10 -4 10 -10z m186 -58 c-11 -10 -15 4 -8 28 l7 25 3 -23 c2 -13 1 -26 -2
-30z m-481 -3 c0 -10 5 -20 10 -21 6 -1 19 -10 29 -19 17 -16 17 -21 5 -51 -7
-18 -20 -41 -28 -50 -14 -17 -17 -16 -40 5 -13 12 -21 17 -17 10 3 -6 2 -14
-4 -18 -16 -10 -12 12 10 55 11 22 20 58 20 81 0 23 3 39 8 35 4 -4 7 -16 7
-27z m348 11 c-3 -11 -9 -20 -15 -20 -5 0 -4 9 2 20 6 11 12 20 14 20 2 0 2
-9 -1 -20z m-1597 -7 c-6 -16 -5 -16 11 -1 17 15 19 14 37 -10 11 -14 14 -22
8 -18 -7 4 -12 1 -12 -9 0 -12 5 -15 22 -9 20 6 21 5 10 -9 -9 -10 -27 -14
-55 -13 -37 2 -42 6 -43 26 -1 14 4 32 10 42 14 23 20 23 12 1z m1321 -26 c11
4 14 2 9 -5 -11 -18 -36 -14 -35 6 0 9 3 12 5 5 3 -7 12 -9 21 -6z m-1132 -29
c14 -6 25 -17 25 -24 0 -7 3 -19 6 -28 3 -9 1 -16 -5 -16 -6 0 -11 9 -11 21 0
11 -4 18 -9 15 -5 -3 -7 -16 -3 -28 4 -17 2 -20 -12 -15 -10 4 -24 7 -31 7
-15 0 -15 31 0 43 6 6 5 10 -4 14 -11 5 -11 7 0 14 17 11 14 11 44 -3z m-258
-23 c-11 -23 -27 -34 -27 -18 0 6 30 43 36 43 1 0 -3 -11 -9 -25z m1833 16 c0
-6 -5 -13 -12 -17 -6 -4 -8 -3 -4 4 3 5 0 13 -6 15 -8 3 -6 6 5 6 9 1 17 -3
17 -8z m-973 -7 c-3 -3 -12 -4 -19 -1 -8 3 -5 6 6 6 11 1 17 -2 13 -5z m-57
-25 c0 -11 -4 -17 -10 -14 -5 3 -10 13 -10 21 0 8 5 14 10 14 6 0 10 -9 10
-21z m-670 -5 c0 -8 7 -22 15 -30 8 -9 15 -11 15 -5 0 6 6 11 14 11 9 0 12 -8
8 -25 -4 -21 -1 -25 22 -25 18 0 24 -4 20 -14 -9 -23 -42 -26 -47 -5 -7 28
-39 25 -35 -3 3 -26 0 -28 -43 -28 -29 0 -30 1 -24 33 7 30 16 42 40 50 6 2 2
13 -8 25 -14 15 -15 21 -5 25 22 9 28 7 28 -9z m410 -53 c0 -5 -7 -11 -15 -15
-9 -3 -15 0 -15 9 0 8 7 15 15 15 8 0 15 -4 15 -9z m965 -52 c-7 -41 -8 -42
-20 -19 -11 20 -10 28 2 47 21 32 26 23 18 -28z m-35 20 c0 -5 -4 -9 -10 -9
-5 0 -10 7 -10 16 0 8 5 12 10 9 6 -3 10 -10 10 -16z m77 -21 c0 -18 -1 -24
-4 -13 -3 11 -9 25 -14 31 -5 6 -6 14 -3 17 12 12 20 -1 21 -35z m29 -4 c-4
-20 -10 -34 -13 -30 -3 3 -2 21 1 42 4 20 10 34 13 30 3 -3 2 -21 -1 -42z
m-259 -5 c-5 -18 -2 -20 16 -16 46 11 63 15 79 22 14 6 16 0 15 -33 -2 -38 -3
-39 -20 -25 -9 9 -20 13 -24 10 -4 -4 1 -13 11 -20 17 -12 17 -14 1 -27 -14
-12 -18 -12 -26 1 -7 12 -9 12 -9 0 0 -11 -4 -10 -13 4 -17 23 -38 11 -33 -18
1 -12 1 -16 -1 -9 -8 23 -34 12 -44 -18 -12 -34 -29 -31 -29 6 0 17 8 27 25
34 23 9 25 14 21 54 -4 49 -1 56 22 56 10 0 13 -7 9 -21z m-86 -12 c-10 -9
-11 -8 -5 6 3 10 9 15 12 12 3 -3 0 -11 -7 -18z m-1041 -7 c0 -5 -4 -10 -10
-10 -5 0 -10 5 -10 10 0 6 5 10 10 10 6 0 10 -4 10 -10z m1702 -2 c-9 -9 -15
-9 -24 0 -9 9 -7 12 12 12 19 0 21 -3 12 -12z m-1737 -18 c3 -5 2 -10 -4 -10
-5 0 -13 5 -16 10 -3 6 -2 10 4 10 5 0 13 -4 16 -10z m955 -12 c5 -13 9 -19 9
-13 1 10 36 -35 36 -47 0 -3 3 -10 8 -14 11 -11 8 -44 -4 -44 -8 0 -10 -12 -6
-35 7 -40 -6 -53 -29 -31 -17 18 -34 21 -34 7 0 -5 -11 -11 -25 -13 -24 -5
-25 -4 -19 33 4 22 2 39 -3 39 -11 0 -73 -68 -73 -81 0 -18 -27 -8 -51 18 -13
14 -19 23 -13 20 16 -9 30 11 44 63 7 25 19 53 27 62 15 16 17 17 28 1 14 -19
37 -9 33 15 -2 9 8 22 22 29 34 17 39 16 50 -9z m360 -8 c0 -5 -5 -10 -11 -10
-5 0 -7 5 -4 10 3 6 8 10 11 10 2 0 4 -4 4 -10z m344 -16 c5 -14 4 -15 -9 -4
-17 14 -19 20 -6 20 5 0 12 -7 15 -16z m-87 -20 c-9 -9 -28 6 -21 18 4 6 10 6
17 -1 6 -6 8 -13 4 -17z m163 16 c0 -5 -4 -10 -10 -10 -5 0 -10 5 -10 10 0 6
5 10 10 10 6 0 10 -4 10 -10z m-460 -15 c-7 -9 -15 -13 -19 -10 -3 3 1 10 9
15 21 14 24 12 10 -5z m-510 -19 c0 -3 -4 -8 -10 -11 -5 -3 -10 -1 -10 4 0 6
5 11 10 11 6 0 10 -2 10 -4z m466 -5 c11 9 14 8 14 -5 0 -19 21 -21 39 -3 11
10 13 9 7 -6 -3 -10 -6 -22 -6 -27 0 -9 -27 -21 -57 -25 -28 -4 -29 3 -5 21
16 11 14 13 -13 24 -23 9 -26 13 -15 20 9 6 16 6 18 -1 3 -6 9 -6 18 2z m-46
-31 c0 -5 -2 -10 -4 -10 -3 0 -8 5 -11 10 -3 6 -1 10 4 10 6 0 11 -4 11 -10z
m165 -10 c3 -5 2 -17 -3 -26 -8 -14 -10 -14 -21 0 -13 15 -8 36 9 36 5 0 12
-4 15 -10z m-161 -26 c3 -8 2 -12 -4 -9 -6 3 -10 10 -10 16 0 14 7 11 14 -7z
m119 -31 c-10 -30 -14 -34 -24 -27 -6 4 -3 14 7 25 21 24 25 24 17 2z m-48 -2
c3 -5 1 -12 -5 -16 -5 -3 -10 1 -10 9 0 18 6 21 15 7z m230 -1 c3 -5 1 -10 -4
-10 -6 0 -11 5 -11 10 0 6 2 10 4 10 3 0 8 -4 11 -10z m-698 -92 c-3 -8 -6 -5
-6 6 -1 11 2 17 5 13 3 -3 4 -12 1 -19z m53 -8 c0 -13 -11 -13 -30 0 -12 8
-11 10 8 10 12 0 22 -4 22 -10z m-5 -48 c15 -8 24 -7 37 5 9 8 22 12 28 8 7
-4 2 -15 -15 -31 -29 -27 -45 -30 -64 -11 -11 10 -12 8 -7 -10 4 -12 3 -24 -3
-27 -5 -3 -11 11 -13 32 -5 40 1 70 11 54 3 -5 15 -14 26 -20z m-155 8 c0 -5
-4 -10 -10 -10 -5 0 -10 5 -10 10 0 6 5 10 10 10 6 0 10 -4 10 -10z m290 -36
c0 -8 -5 -12 -10 -9 -6 4 -8 11 -5 16 9 14 15 11 15 -7z m-363 0 c-3 -3 -12
-4 -19 -1 -8 3 -5 6 6 6 11 1 17 -2 13 -5z m23 -44 c0 -11 -7 -20 -15 -20 -18
0 -19 12 -3 28 16 16 18 15 18 -8z m1366 -17 c-10 -10 -19 5 -10 18 6 11 8 11
12 0 2 -7 1 -15 -2 -18z m-1714 -425 l-22 -22 0 23 c0 16 4 21 15 17 8 -3 15
0 15 6 0 6 3 8 7 4 4 -3 -3 -16 -15 -28z m-157 -188 c3 -5 -1 -10 -10 -10 -9
0 -13 5 -10 10 3 6 8 10 10 10 2 0 7 -4 10 -10z m-133 -192 c-7 -7 -10 -5 -7
8 5 29 6 30 12 16 3 -8 1 -18 -5 -24z m-97 -18 c-3 -5 -14 -10 -23 -10 -15 0
-15 2 -2 10 20 13 33 13 25 0z m34 -62 l-22 -23 19 33 c10 18 20 28 22 23 2
-6 -7 -21 -19 -33z m481 -383 c0 -9 -6 -12 -15 -9 -8 4 -12 10 -9 15 8 14 24
10 24 -6z"/>
<path d="M6535 13130 c-3 -5 -2 -10 4 -10 5 0 13 5 16 10 3 6 2 10 -4 10 -5 0
-13 -4 -16 -10z"/>
<path d="M7536 12153 c-11 -11 -6 -23 9 -23 8 0 15 4 15 9 0 13 -16 22 -24 14z"/>
<path d="M7587 12124 c-3 -4 -25 -6 -49 -6 -29 1 -38 -2 -28 -8 16 -10 74 -3
100 11 13 7 13 8 -1 9 -9 0 -18 -3 -22 -6z"/>
<path d="M8230 11851 c0 -23 20 -32 36 -17 8 8 8 14 -2 23 -18 19 -34 16 -34
-6z"/>
<path d="M8140 11850 c0 -5 5 -10 10 -10 6 0 10 5 10 10 0 6 -4 10 -10 10 -5
0 -10 -4 -10 -10z"/>
<path d="M8292 11779 c2 -6 8 -10 13 -10 5 0 11 4 13 10 2 6 -4 11 -13 11 -9
0 -15 -5 -13 -11z"/>
<path d="M8500 11581 c0 -5 5 -13 10 -16 6 -3 10 -2 10 4 0 5 -4 13 -10 16 -5
3 -10 2 -10 -4z"/>
<path d="M8400 11551 c0 -18 18 -21 30 -6 10 13 9 15 -9 15 -11 0 -21 -4 -21
-9z"/>
<path d="M6360 11170 c0 -5 5 -10 10 -10 6 0 10 5 10 10 0 6 -4 10 -10 10 -5
0 -10 -4 -10 -10z"/>
<path d="M7080 10890 c0 -5 5 -10 11 -10 5 0 7 5 4 10 -3 6 -8 10 -11 10 -2 0
-4 -4 -4 -10z"/>
<path d="M8657 10901 c-3 -14 -1 -18 9 -14 8 3 14 11 14 19 0 21 -17 17 -23
-5z"/>
<path d="M7455 10460 c3 -5 11 -10 16 -10 6 0 7 5 4 10 -3 6 -11 10 -16 10 -6
0 -7 -4 -4 -10z"/>
<path d="M7490 10636 c0 -9 5 -16 10 -16 6 0 10 4 10 9 0 6 -4 13 -10 16 -5 3
-10 -1 -10 -9z"/>
<path d="M7655 10550 c-7 -11 7 -50 16 -44 5 3 9 0 9 -7 0 -10 3 -10 12 -1 7
7 21 12 33 13 11 0 14 3 8 6 -7 2 -13 13 -13 22 0 13 -8 18 -30 18 -17 0 -33
-3 -35 -7z"/>
<path d="M7775 10480 c-3 -6 1 -13 9 -16 9 -3 13 -10 10 -15 -3 -5 -10 -6 -16
-3 -7 4 -8 2 -4 -4 4 -7 16 -12 27 -12 10 0 19 -4 19 -10 0 -5 5 -10 10 -10
16 0 7 53 -10 67 -18 15 -37 16 -45 3z"/>
<path d="M7565 10470 c-3 -5 -1 -10 4 -10 6 0 11 5 11 10 0 6 -2 10 -4 10 -3
0 -8 -4 -11 -10z"/>
<path d="M7695 10359 c-4 -6 -5 -12 -2 -15 2 -3 7 2 10 11 7 17 1 20 -8 4z"/>
<path d="M7760 10349 c0 -11 5 -17 10 -14 6 3 10 13 10 21 0 8 -4 14 -10 14
-5 0 -10 -9 -10 -21z"/>
<path d="M7485 9990 c3 -5 8 -10 11 -10 2 0 4 5 4 10 0 6 -5 10 -11 10 -5 0
-7 -4 -4 -10z"/>
<path d="M7490 9619 c0 -5 5 -7 10 -4 6 3 10 8 10 11 0 2 -4 4 -10 4 -5 0 -10
-5 -10 -11z"/>
<path d="M7120 9405 c7 -9 15 -13 17 -11 7 7 -7 26 -19 26 -6 0 -6 -6 2 -15z"/>
<path d="M7370 9190 c0 -5 10 -10 23 -10 18 0 19 2 7 10 -19 13 -30 13 -30 0z"/>
<path d="M7242 9179 c2 -7 10 -15 17 -17 8 -3 12 1 9 9 -2 7 -10 15 -17 17 -8
3 -12 -1 -9 -9z"/>
<path d="M7345 9150 c3 -5 11 -10 16 -10 6 0 7 5 4 10 -3 6 -11 10 -16 10 -6
0 -7 -4 -4 -10z"/>
<path d="M7260 8968 c0 -5 9 -8 19 -8 11 0 22 3 24 8 3 4 -6 7 -19 7 -13 0
-24 -3 -24 -7z"/>
<path d="M7210 8210 c0 -5 5 -10 11 -10 5 0 7 5 4 10 -3 6 -8 10 -11 10 -2 0
-4 -4 -4 -10z"/>
<path d="M8500 7020 c0 -5 5 -10 10 -10 6 0 10 5 10 10 0 6 -4 10 -10 10 -5 0
-10 -4 -10 -10z"/>
<path d="M7980 7111 c0 -5 5 -13 10 -16 6 -3 10 -2 10 4 0 5 -4 13 -10 16 -5
3 -10 2 -10 -4z"/>
<path d="M7865 6730 c-3 -5 -1 -10 4 -10 6 0 11 5 11 10 0 6 -2 10 -4 10 -3 0
-8 -4 -11 -10z"/>
<path d="M7690 6439 c0 -5 5 -7 10 -4 6 3 10 8 10 11 0 2 -4 4 -10 4 -5 0 -10
-5 -10 -11z"/>
<path d="M7625 6390 c-3 -5 1 -10 9 -10 9 0 16 5 16 10 0 6 -4 10 -9 10 -6 0
-13 -4 -16 -10z"/>
<path d="M5912 13800 c0 -19 2 -27 5 -17 2 9 2 25 0 35 -3 9 -5 1 -5 -18z"/>
<path d="M6405 13780 c3 -5 8 -10 11 -10 2 0 4 5 4 10 0 6 -5 10 -11 10 -5 0
-7 -4 -4 -10z"/>
<path d="M6371 13773 c0 -6 -4 -20 -7 -30 -5 -14 -4 -15 5 -7 7 7 11 20 8 30
-3 11 -5 14 -6 7z"/>
<path d="M6084 13735 c21 -16 32 -13 21 4 -3 6 -14 11 -23 11 -15 -1 -15 -2 2
-15z"/>
<path d="M6960 13720 c0 -6 7 -10 15 -10 8 0 15 2 15 4 0 2 -7 6 -15 10 -8 3
-15 1 -15 -4z"/>
<path d="M6197 13706 c4 -12 3 -17 -4 -13 -6 4 -23 -5 -39 -19 -22 -21 -24
-25 -9 -20 20 6 20 6 1 -9 -18 -14 -18 -15 -2 -15 9 0 15 -4 11 -9 -3 -5 -1
-12 4 -15 12 -8 22 20 15 39 -4 8 -1 15 6 15 6 0 18 6 25 14 12 11 12 16 -1
32 -14 18 -14 18 -7 0z"/>
<path d="M5912 13600 c0 -14 2 -19 5 -12 2 6 2 18 0 25 -3 6 -5 1 -5 -13z"/>
<path d="M7296 13592 c-2 -4 2 -18 9 -32 9 -17 10 -32 4 -49 -8 -19 -7 -22 4
-13 17 14 60 4 53 -14 -6 -17 16 -35 32 -25 9 5 12 25 10 56 l-3 48 -52 18
c-29 10 -55 15 -57 11z m51 -38 c5 -16 -25 -13 -32 3 -3 10 1 13 12 11 9 -2
18 -8 20 -14z m53 -5 c0 -5 -4 -8 -9 -5 -5 4 -11 0 -14 -6 -2 -7 -8 -10 -12
-6 -4 4 -4 11 0 17 8 14 35 14 35 0z"/>
<path d="M7271 13554 c0 -11 3 -14 6 -6 3 7 2 16 -1 19 -3 4 -6 -2 -5 -13z"/>
<path d="M7465 13527 c11 -9 17 -19 13 -23 -4 -4 -14 -1 -23 6 -9 7 -18 10
-22 7 -3 -4 2 -9 11 -13 20 -8 21 -24 1 -24 -22 0 -18 -14 8 -25 19 -9 22 -18
22 -62 1 -29 6 -58 13 -65 16 -16 15 -29 -2 -22 -8 3 -17 0 -22 -7 -4 -7 -2
-15 4 -17 15 -5 16 -32 2 -32 -5 0 -10 -5 -10 -10 0 -6 13 -9 29 -8 16 1 27 6
25 10 -3 5 -10 6 -15 3 -5 -3 -6 1 -3 9 3 9 10 13 15 10 5 -3 9 -1 9 5 0 6 18
20 41 32 l41 20 15 -20 c16 -23 38 -29 30 -7 -3 7 0 19 6 26 8 8 8 14 2 16 -5
2 -25 13 -44 25 -27 17 -32 23 -20 31 11 7 11 11 2 15 -18 7 -16 23 2 23 8 0
15 4 15 9 0 15 38 23 58 12 19 -10 62 -5 62 8 0 3 -12 11 -26 18 -22 10 -32 9
-65 -7 -45 -23 -56 -25 -40 -7 6 8 7 17 3 22 -4 4 5 5 21 3 15 -3 27 -1 27 3
0 5 -7 10 -15 10 -19 2 -24 3 -56 17 -15 6 -40 10 -56 10 -15 -1 -39 2 -53 7
-24 7 -24 7 -5 -8z"/>
<path d="M7177 13394 c7 -76 11 -91 28 -91 13 0 14 3 0 23 -17 26 -20 61 -5
66 5 2 1 14 -9 27 l-19 25 5 -50z"/>
<path d="M7700 13430 c0 -4 6 -11 13 -13 9 -4 9 -8 -3 -16 -8 -5 -18 -7 -22
-5 -4 3 -8 0 -8 -5 0 -6 9 -11 21 -11 26 0 46 -20 55 -56 l8 -29 7 35 c4 19 4
37 1 40 -4 3 -7 11 -8 18 -1 6 -2 16 -2 21 -2 12 -62 33 -62 21z"/>
<path d="M7770 13429 c0 -5 5 -7 10 -4 6 3 10 8 10 11 0 2 -4 4 -10 4 -5 0
-10 -5 -10 -11z"/>
<path d="M7818 13423 c7 -3 16 -2 19 1 4 3 -2 6 -13 5 -11 0 -14 -3 -6 -6z"/>
<path d="M7985 13371 c17 -5 47 -16 68 -25 22 -10 44 -15 50 -13 7 3 -1 8 -18
12 -16 5 -32 12 -35 16 -3 4 -26 10 -50 13 -36 5 -39 4 -15 -3z"/>
<path d="M8130 13326 c0 -9 30 -14 35 -6 4 6 -3 10 -14 10 -12 0 -21 -2 -21
-4z"/>
<path d="M7400 13300 c-13 -24 2 -27 24 -4 20 19 20 24 1 24 -8 0 -19 -9 -25
-20z"/>
<path d="M7121 13297 c-19 -7 -36 -18 -39 -24 -5 -18 13 -16 32 3 9 8 16 10
16 4 0 -8 6 -8 20 0 11 6 20 15 20 20 0 12 -6 12 -49 -3z"/>
<path d="M8185 13300 c3 -5 11 -10 16 -10 6 0 7 5 4 10 -3 6 -11 10 -16 10 -6
0 -7 -4 -4 -10z"/>
<path d="M7580 13271 c0 -5 7 -11 15 -15 8 -3 15 -1 15 3 0 5 -7 11 -15 15 -8
3 -15 1 -15 -3z"/>
<path d="M8260 13271 c0 -5 8 -11 18 -15 9 -3 27 -10 40 -16 19 -8 22 -6 22
13 0 16 -3 19 -9 8 -7 -11 -13 -11 -32 3 -26 18 -39 20 -39 7z"/>
<path d="M7843 13264 c4 -4 2 -13 -3 -19 -8 -9 -6 -15 7 -19 10 -4 14 -4 10 0
-4 4 -2 13 3 19 8 9 6 15 -7 19 -10 4 -14 4 -10 0z"/>
<path d="M7206 13247 c3 -10 9 -15 12 -12 3 3 0 11 -7 18 -10 9 -11 8 -5 -6z"/>
<path d="M7627 13253 c-14 -13 -6 -23 30 -38 41 -17 59 -12 19 6 -14 7 -26 18
-26 26 0 14 -12 17 -23 6z"/>
<path d="M8361 13244 c0 -11 3 -14 6 -6 3 7 2 16 -1 19 -3 4 -6 -2 -5 -13z"/>
<path d="M8400 13226 c14 -7 39 -16 55 -20 l30 -6 -25 14 c-14 7 -38 16 -55
20 l-30 6 25 -14z"/>
<path d="M8082 13217 c-7 -8 -9 -17 -5 -20 3 -4 -3 -7 -14 -7 -11 0 -26 7 -33
15 -15 19 -31 20 -24 2 4 -12 44 -33 97 -51 10 -3 15 -11 12 -16 -5 -8 -11 -7
-21 1 -20 16 -49 -7 -33 -27 10 -12 26 -7 92 33 4 3 3 11 -3 18 -6 7 -8 19 -5
27 4 9 -1 18 -12 22 -10 3 -23 8 -29 11 -6 3 -16 -1 -22 -8z"/>
<path d="M8180 13211 c0 -9 39 -31 56 -31 12 0 2 18 -13 24 -10 3 -24 9 -30
12 -7 3 -13 1 -13 -5z"/>
<path d="M7745 13190 c3 -5 8 -10 11 -10 2 0 4 5 4 10 0 6 -5 10 -11 10 -5 0
-7 -4 -4 -10z"/>
<path d="M7420 13181 c0 -5 7 -12 16 -15 14 -5 15 -4 4 9 -14 17 -20 19 -20 6z"/>
<path d="M8550 13176 c0 -2 7 -6 15 -10 8 -3 15 -1 15 4 0 6 -7 10 -15 10 -8
0 -15 -2 -15 -4z"/>
<path d="M8181 13161 c-17 -11 -6 -31 17 -31 14 0 14 -2 3 -9 -9 -6 -25 -5
-40 0 -22 9 -29 6 -56 -25 -33 -39 -45 -44 -45 -22 0 17 -32 16 -43 -1 -16
-25 17 -61 48 -53 20 6 59 0 70 -11 7 -7 -3 -8 -34 -3 -43 7 -43 7 -31 -17 29
-56 78 -77 108 -47 7 7 12 8 12 3 0 -6 4 -4 9 3 7 11 12 11 28 1 21 -13 53 -7
53 11 0 5 -13 10 -30 10 -16 0 -30 2 -30 4 0 16 24 65 30 61 4 -3 10 1 13 9 7
19 47 9 47 -11 0 -12 3 -13 13 -4 8 6 17 8 20 4 4 -3 7 1 7 10 0 10 5 17 11
17 6 0 8 8 4 19 -8 25 9 35 35 21 11 -6 20 -8 20 -6 0 12 -57 33 -89 34 -18 0
-39 6 -45 12 -8 8 -6 9 7 5 10 -4 17 -2 17 4 0 7 -15 11 -37 9 -21 -1 -47 1
-58 5 -11 3 -26 3 -34 -2z m166 -77 c2 -7 -6 -10 -22 -6 -35 6 -44 24 -9 20
15 -2 29 -8 31 -14z"/>
<path d="M7480 13150 c-13 -8 -13 -10 2 -10 9 0 20 5 23 10 8 13 -5 13 -25 0z"/>
<path d="M7550 13150 c0 -5 5 -10 10 -10 6 0 10 5 10 10 0 6 -4 10 -10 10 -5
0 -10 -4 -10 -10z"/>
<path d="M8690 13100 c0 -5 5 -10 10 -10 6 0 10 5 10 10 0 6 -4 10 -10 10 -5
0 -10 -4 -10 -10z"/>
<path d="M8770 13100 c0 -5 6 -10 13 -11 6 0 1 -5 -12 -10 -13 -5 -21 -12 -18
-15 3 -3 18 1 33 9 27 14 27 14 6 26 -14 8 -22 8 -22 1z"/>
<path d="M8820 13076 c0 -2 11 -6 25 -8 14 -3 25 -1 25 3 0 5 -11 9 -25 9 -14
0 -25 -2 -25 -4z"/>
<path d="M8898 13053 c7 -3 16 -2 19 1 4 3 -2 6 -13 5 -11 0 -14 -3 -6 -6z"/>
<path d="M8975 13020 c10 -11 20 -20 23 -20 3 0 -3 9 -13 20 -10 11 -20 20
-23 20 -3 0 3 -9 13 -20z"/>
<path d="M7602 13010 c0 -14 2 -19 5 -12 2 6 2 18 0 25 -3 6 -5 1 -5 -13z"/>
<path d="M9010 12999 c0 -5 6 -9 14 -9 8 0 22 -3 32 -7 11 -4 15 -2 12 7 -5
15 -58 23 -58 9z"/>
<path d="M7792 12918 c3 -7 13 -15 24 -17 16 -3 17 -1 5 13 -16 19 -34 21 -29
4z"/>
<path d="M8755 12910 c-3 -5 1 -10 10 -10 9 0 13 5 10 10 -3 6 -8 10 -10 10
-2 0 -7 -4 -10 -10z"/>
<path d="M7562 12885 c0 -16 2 -22 5 -12 2 9 2 23 0 30 -3 6 -5 -1 -5 -18z"/>
<path d="M8363 12903 c-18 -7 -16 -23 1 -23 8 0 18 -5 22 -12 5 -8 2 -9 -9 -5
-22 8 -28 -5 -11 -21 8 -7 14 -10 14 -7 0 3 11 -2 25 -11 46 -30 77 23 35 59
-12 10 -25 15 -30 12 -5 -3 -11 -1 -15 5 -7 11 -13 11 -32 3z"/>
<path d="M7470 12879 c0 -5 5 -7 10 -4 6 3 10 8 10 11 0 2 -4 4 -10 4 -5 0
-10 -5 -10 -11z"/>
<path d="M7520 12879 c0 -5 5 -7 10 -4 6 3 10 8 10 11 0 2 -4 4 -10 4 -5 0
-10 -5 -10 -11z"/>
<path d="M8750 12870 c0 -5 5 -10 11 -10 5 0 7 5 4 10 -3 6 -8 10 -11 10 -2 0
-4 -4 -4 -10z"/>
<path d="M9332 12864 c10 -10 20 -15 24 -12 3 4 -5 12 -18 18 -22 12 -22 12
-6 -6z"/>
<path d="M5951 12844 c0 -11 3 -14 6 -6 3 7 2 16 -1 19 -3 4 -6 -2 -5 -13z"/>
<path d="M7530 12845 c0 -8 5 -15 10 -15 6 0 10 7 10 15 0 8 -4 15 -10 15 -5
0 -10 -7 -10 -15z"/>
<path d="M7606 12834 c5 -18 3 -25 -3 -21 -16 10 -23 -30 -9 -43 16 -12 26 -3
26 23 0 14 5 18 20 14 11 -3 20 0 20 6 0 7 7 4 14 -6 13 -16 14 -16 18 5 4 21
1 23 -34 20 -30 -3 -38 -1 -38 12 0 9 -5 16 -10 16 -6 0 -8 -11 -4 -26z"/>
<path d="M8610 12830 c0 -5 5 -10 10 -10 6 0 10 5 10 10 0 6 -4 10 -10 10 -5
0 -10 -4 -10 -10z"/>
<path d="M9040 12830 c0 -5 7 -7 15 -4 8 4 15 8 15 10 0 2 -7 4 -15 4 -8 0
-15 -4 -15 -10z"/>
<path d="M7497 12823 c-4 -3 -7 -13 -7 -22 1 -13 3 -13 11 2 11 19 8 33 -4 20z"/>
<path d="M9411 12813 c7 -12 15 -20 18 -17 3 2 -3 12 -13 22 -17 16 -18 16 -5
-5z"/>
<path d="M7350 12805 c0 -8 7 -15 16 -15 14 0 14 3 4 15 -7 8 -14 15 -16 15
-2 0 -4 -7 -4 -15z"/>
<path d="M7780 12811 c0 -6 4 -13 10 -16 6 -3 7 1 4 9 -7 18 -14 21 -14 7z"/>
<path d="M8642 12809 c2 -7 10 -15 17 -17 8 -3 12 1 9 9 -2 7 -10 15 -17 17
-8 3 -12 -1 -9 -9z"/>
<path d="M8100 12801 c0 -5 5 -13 10 -16 6 -3 10 -2 10 4 0 5 -4 13 -10 16 -5
3 -10 2 -10 -4z"/>
<path d="M9115 12790 c3 -5 8 -10 11 -10 2 0 4 5 4 10 0 6 -5 10 -11 10 -5 0
-7 -4 -4 -10z"/>
<path d="M7320 12781 c0 -6 5 -13 10 -16 6 -3 10 1 10 9 0 9 -4 16 -10 16 -5
0 -10 -4 -10 -9z"/>
<path d="M7520 12781 c0 -5 8 -11 18 -13 12 -2 17 -13 17 -38 0 -26 5 -35 19
-38 15 -3 17 0 11 14 -4 11 -10 34 -13 52 -3 26 -9 32 -28 32 -13 0 -24 -4
-24 -9z"/>
<path d="M7655 12781 c-3 -5 -1 -12 5 -16 5 -3 10 1 10 9 0 18 -6 21 -15 7z"/>
<path d="M9440 12776 c0 -2 8 -10 18 -17 15 -13 16 -12 3 4 -13 16 -21 21 -21
13z"/>
<path d="M9260 12750 c0 -5 5 -10 11 -10 5 0 7 5 4 10 -3 6 -8 10 -11 10 -2 0
-4 -4 -4 -10z"/>
<path d="M9476 12733 c-6 -14 -5 -15 5 -6 7 7 10 15 7 18 -3 3 -9 -2 -12 -12z"/>
<path d="M7606 12725 c4 -8 13 -15 21 -15 12 0 12 2 -1 15 -8 8 -17 15 -20 15
-3 0 -3 -7 0 -15z"/>
<path d="M7293 12718 c-13 -16 -23 -68 -14 -68 14 0 29 23 25 35 -3 7 -1 16 5
20 13 8 15 25 2 25 -5 0 -13 -6 -18 -12z"/>
<path d="M7440 12720 c0 -5 5 -10 10 -10 6 0 10 5 10 10 0 6 -4 10 -10 10 -5
0 -10 -4 -10 -10z"/>
<path d="M9500 12722 c0 -5 7 -15 15 -22 8 -7 15 -8 15 -2 0 5 -7 15 -15 22
-8 7 -15 8 -15 2z"/>
<path d="M7520 12700 c0 -11 2 -20 4 -20 2 0 6 9 9 20 3 11 1 20 -4 20 -5 0
-9 -9 -9 -20z"/>
<path d="M7406 12703 c5 -5 12 -12 16 -18 4 -6 8 -2 8 8 0 9 -7 17 -17 17 -9
0 -12 -3 -7 -7z"/>
<path d="M7471 12694 c0 -11 3 -14 6 -6 3 7 2 16 -1 19 -3 4 -6 -2 -5 -13z"/>
<path d="M9525 12669 c-4 -6 -5 -12 -2 -15 2 -3 7 2 10 11 7 17 1 20 -8 4z"/>
<path d="M7163 12613 c-7 -2 -13 -11 -13 -19 0 -9 5 -12 10 -9 15 9 12 -8 -5
-31 -8 -10 -15 -27 -15 -36 0 -9 -7 -24 -16 -33 -13 -12 -14 -19 -5 -28 11
-11 12 -9 15 15 2 17 26 22 26 5 0 -8 6 -19 13 -25 10 -9 13 -3 14 28 2 29 -2
38 -12 34 -11 -5 -11 1 0 33 8 21 19 37 25 35 6 -1 6 5 -2 18 -13 21 -15 22
-35 13z"/>
<path d="M9570 12605 c0 -15 18 -40 24 -34 3 3 -1 14 -9 25 -8 10 -14 15 -15
9z"/>
<path d="M7340 12571 c0 -5 7 -24 15 -42 14 -34 14 -34 15 -6 0 15 -5 27 -11
27 -6 0 -9 7 -5 15 3 8 1 15 -4 15 -6 0 -10 -4 -10 -9z"/>
<path d="M7489 12553 c0 -10 -3 -38 -6 -62 -3 -28 -2 -41 5 -37 6 3 13 0 16
-6 3 -9 9 -7 21 7 9 11 21 19 26 18 5 -2 9 3 9 10 0 25 -13 27 -32 5 -28 -32
-42 -11 -23 35 19 45 19 47 0 47 -8 0 -15 -8 -16 -17z"/>
<path d="M7622 12550 c0 -14 2 -19 5 -12 2 6 2 18 0 25 -3 6 -5 1 -5 -13z"/>
<path d="M7621 12504 c0 -11 3 -14 6 -6 3 7 2 16 -1 19 -3 4 -6 -2 -5 -13z"/>
<path d="M9125 12480 c3 -5 8 -10 11 -10 2 0 4 5 4 10 0 6 -5 10 -11 10 -5 0
-7 -4 -4 -10z"/>
<path d="M7440 12464 c0 -8 5 -12 10 -9 6 4 8 11 5 16 -9 14 -15 11 -15 -7z"/>
<path d="M9113 12443 c0 -8 12 -13 31 -12 17 1 23 3 13 6 -9 2 -15 8 -13 12 3
4 -3 7 -13 7 -10 0 -18 -6 -18 -13z"/>
<path d="M7370 12440 c0 -5 4 -10 9 -10 6 0 13 5 16 10 3 6 -1 10 -9 10 -9 0
-16 -4 -16 -10z"/>
<path d="M8010 12359 c-17 -30 -6 -34 14 -4 9 14 12 25 7 25 -6 0 -15 -9 -21
-21z"/>
<path d="M7540 12329 c0 -9 7 -22 15 -29 19 -16 19 0 0 26 -12 16 -14 16 -15
3z"/>
<path d="M8035 12330 c-4 -6 5 -10 20 -10 15 0 24 4 20 10 -3 6 -12 10 -20 10
-8 0 -17 -4 -20 -10z"/>
<path d="M7964 12315 c-10 -8 -14 -15 -8 -15 6 0 17 7 24 15 16 19 9 19 -16 0z"/>
<path d="M8940 12250 c0 -5 5 -10 11 -10 5 0 7 5 4 10 -3 6 -8 10 -11 10 -2 0
-4 -4 -4 -10z"/>
<path d="M6052 11775 c0 -16 2 -22 5 -12 2 9 2 23 0 30 -3 6 -5 -1 -5 -18z"/>
<path d="M8420 10811 c0 -5 5 -13 10 -16 6 -3 10 -2 10 4 0 5 -4 13 -10 16 -5
3 -10 2 -10 -4z"/>
<path d="M6161 10594 c0 -11 3 -14 6 -6 3 7 2 16 -1 19 -3 4 -6 -2 -5 -13z"/>
<path d="M8565 10492 c4 -13 1 -30 -7 -39 -11 -15 -11 -16 5 -10 10 4 23 7 28
7 14 0 10 13 -12 40 -20 25 -20 25 -14 2z"/>
<path d="M8406 10284 c-3 -9 -2 -23 4 -32 5 -10 10 -12 10 -6 0 7 11 11 25 10
26 -1 32 -10 14 -21 -6 -4 -8 -13 -6 -19 4 -9 -3 -11 -19 -8 -31 6 -31 -3 0
-23 23 -16 26 -15 55 10 17 16 27 33 24 41 -3 8 -8 12 -11 9 -3 -3 -16 4 -28
16 -14 13 -31 20 -43 16 -14 -3 -18 -1 -14 9 3 8 3 14 0 14 -3 0 -8 -7 -11
-16z"/>
<path d="M8731 10254 c0 -11 3 -14 6 -6 3 7 2 16 -1 19 -3 4 -6 -2 -5 -13z"/>
<path d="M9633 9989 c-28 -10 -29 -21 -3 -44 18 -16 20 -16 20 -2 0 10 -5 17
-12 17 -6 0 -3 6 8 14 24 18 16 26 -13 15z"/>
<path d="M8660 9960 c0 -5 7 -10 15 -10 8 0 15 5 15 10 0 6 -7 10 -15 10 -8 0
-15 -4 -15 -10z"/>
<path d="M8675 9670 c-3 -5 1 -10 9 -10 9 0 16 5 16 10 0 6 -4 10 -9 10 -6 0
-13 -4 -16 -10z"/>
<path d="M6282 9170 c0 -19 2 -27 5 -17 2 9 2 25 0 35 -3 9 -5 1 -5 -18z"/>
<path d="M8676 9161 c-3 -5 1 -11 9 -15 9 -3 15 0 15 9 0 16 -16 20 -24 6z"/>
<path d="M8685 9080 c3 -5 -2 -10 -12 -10 -15 0 -16 -2 -3 -10 23 -15 30 -12
30 10 0 11 -5 20 -11 20 -5 0 -7 -4 -4 -10z"/>
<path d="M8655 8910 c-3 -5 -1 -10 4 -10 6 0 11 5 11 10 0 6 -2 10 -4 10 -3 0
-8 -4 -11 -10z"/>
<path d="M8605 8330 c-3 -5 -1 -10 4 -10 6 0 11 5 11 10 0 6 -2 10 -4 10 -3 0
-8 -4 -11 -10z"/>
<path d="M8593 8094 c-4 -10 -17 -15 -37 -14 -50 3 -54 1 -49 -21 5 -16 8 -18
15 -7 7 9 11 10 14 1 3 -7 19 -10 42 -7 38 5 54 14 36 21 -7 2 -10 13 -7 23 6
24 -5 27 -14 4z"/>
<path d="M8440 8040 c0 -5 7 -10 16 -10 8 0 13 -4 9 -9 -3 -5 0 -13 6 -16 17
-11 21 2 7 24 -13 22 -38 29 -38 11z"/>
<path d="M8616 8001 c-4 -5 3 -7 14 -4 23 6 26 13 6 13 -8 0 -17 -4 -20 -9z"/>
<path d="M8568 7760 c-16 -28 -28 -53 -29 -58 0 -4 -10 -18 -22 -31 l-22 -24
27 5 c15 3 29 0 31 -6 2 -6 10 8 16 32 7 24 22 49 36 58 21 13 22 19 13 45 -5
16 -13 29 -16 29 -4 0 -19 -23 -34 -50z"/>
<path d="M8490 7610 c0 -5 -6 -10 -14 -10 -22 0 -29 -19 -15 -36 10 -12 15
-13 25 -2 17 19 28 58 15 58 -6 0 -11 -4 -11 -10z"/>
<path d="M8443 7506 c-13 -6 -23 -14 -23 -18 0 -5 -7 -8 -17 -8 -14 0 -15 -2
-1 -17 8 -10 18 -26 21 -35 4 -11 17 -18 33 -18 20 0 25 4 20 16 -5 12 -1 14
17 9 24 -8 25 -8 45 -6 20 2 9 24 -20 44 -16 11 -28 23 -28 27 0 14 -24 17
-47 6z"/>
<path d="M8570 7461 c13 -26 32 -37 23 -15 -5 14 -2 16 15 12 15 -4 22 -2 22
8 0 9 -12 14 -35 14 -32 0 -35 -2 -25 -19z"/>
<path d="M8613 7428 c1 -8 -7 -12 -21 -10 -12 2 -29 -4 -38 -12 -19 -19 -34
-21 -34 -3 0 6 -5 4 -11 -5 -5 -10 -20 -18 -32 -19 -21 -1 -20 -2 3 -9 36 -11
52 -11 45 0 -3 6 0 11 7 11 16 2 58 6 81 8 18 1 26 51 7 51 -5 0 -9 -6 -7 -12z"/>
<path d="M8350 7350 c-12 -8 -9 -10 13 -10 15 0 27 5 27 10 0 13 -20 13 -40 0z"/>
</g>
</svg>
